<svg width="24" height="25" viewBox="0 0 24 25" fill="none" xmlns="http://www.w3.org/2000/svg">
<g clip-path="url(#clip0_123_71)">
<path d="M3.2356 19.9446L3.40228 19.4477L3.0937 19.0241C1.77755 17.2174 1.00336 14.9924 1.00336 12.5904C1.00336 6.558 5.89377 1.64543 11.9179 1.60944H11.9845H11.9915C18.0461 1.60944 22.9726 6.53597 22.9726 12.5906C22.9726 18.645 18.0461 23.5717 11.9915 23.5717C9.75634 23.5717 7.68639 22.9073 5.95054 21.7587L5.54487 21.4902L5.0815 21.6383L2.37761 22.5022L3.2356 19.9446Z" stroke="white" stroke-width="2.03"/>
<path d="M9.05514 8.11573C8.85866 7.65238 8.70974 7.63483 8.41208 7.62292C8.29905 7.61574 8.18582 7.61188 8.07256 7.61133C7.68531 7.61133 7.28041 7.72274 7.0362 7.96906C6.73853 8.26819 6 8.9661 6 10.3973C6 11.8286 7.06006 13.2128 7.20293 13.4065C7.35185 13.5999 9.26961 16.5796 12.2473 17.794C14.5758 18.7442 15.2668 18.6561 15.7967 18.5447C16.5709 18.3805 17.5417 17.8171 17.7859 17.1369C18.0301 16.4564 18.0301 15.8757 17.9585 15.7525C17.8871 15.6294 17.6904 15.5592 17.3928 15.4124C17.0951 15.2657 15.6478 14.5618 15.3738 14.468C15.1058 14.3683 14.8498 14.4036 14.6474 14.6851C14.3615 15.0781 14.0817 15.4771 13.8553 15.7174C13.6766 15.9052 13.3846 15.9287 13.1406 15.8289C12.813 15.6941 11.896 15.3771 10.7643 14.3858C9.8888 13.6176 9.29331 12.6616 9.12069 12.3742C8.94791 12.081 9.10287 11.9107 9.23969 11.7525C9.38861 11.5705 9.53147 11.4416 9.68039 11.2714C9.82931 11.1014 9.91267 11.0133 10.008 10.8138C10.1093 10.6203 10.0377 10.4209 9.96629 10.2742C9.89486 10.1275 9.29936 8.69627 9.05514 8.11573Z" fill="white"/>
</g>
<defs>
<clipPath id="clip0_123_71">
<rect width="24" height="24" fill="white" transform="translate(0 0.611328)"/>
</clipPath>
</defs>
</svg>
