<svg width="153" height="68" viewBox="0 0 153 68" fill="none" xmlns="http://www.w3.org/2000/svg">
<g clip-path="url(#clip0_51_2)">
<path d="M84.4535 52.032C84.5157 52.0936 84.5503 52.1773 84.5503 52.2645V57.8187C84.5503 57.9999 84.4017 58.1468 84.2185 58.1468L72.9852 58.1468C72.802 58.1468 72.6534 57.9999 72.6534 57.8187V46.7081C72.6534 46.5269 72.802 46.3799 72.9852 46.3799L84.2185 46.3799C84.4017 46.3799 84.5503 46.5269 84.5503 46.7081C84.5503 46.8892 84.4017 47.0362 84.2185 47.0362L73.3169 47.0362V57.4906L83.8868 57.4906V52.5926L78.6012 52.5926C78.418 52.5926 78.2694 52.4456 78.2694 52.2645C78.2694 52.0833 78.418 51.9363 78.6012 51.9363L84.2185 51.9363C84.3066 51.9363 84.3913 51.9705 84.4535 52.032ZM91.0524 45.1858V48.233H95.1908C95.3739 48.233 95.5225 48.38 95.5225 48.5612C95.5225 48.7423 95.3739 48.8893 95.1908 48.8893H91.0524V51.9365H95.1908C95.3739 51.9365 95.5225 52.0835 95.5225 52.2646C95.5225 52.4458 95.3739 52.5928 95.1908 52.5928H91.0524V55.64H95.1908C95.3739 55.64 95.5225 55.7869 95.5225 55.9681C95.5225 56.1492 95.3739 56.2962 95.1908 56.2962H91.0524V59.3434H95.1908C95.3739 59.3434 95.5225 59.4904 95.5225 59.6716C95.5225 59.8527 95.3739 59.9997 95.1908 59.9997H91.0524V64.25C91.0524 64.4312 90.9038 64.5782 90.7206 64.5782H86.4234V68.6713C86.4234 68.8525 86.2748 68.9995 86.0916 68.9995C85.9084 68.9995 85.7598 68.8525 85.7598 68.6713V64.5782H82.679V68.6713C82.679 68.8525 82.5304 68.9995 82.3473 68.9995C82.1641 68.9995 82.0155 68.8525 82.0155 68.6713V64.5782H78.9347V68.6713C78.9347 68.8525 78.7861 68.9995 78.6029 68.9995C78.4197 68.9995 78.2711 68.8525 78.2711 68.6713V64.5782H75.1903L75.1903 68.6713C75.1903 68.8525 75.0417 68.9995 74.8585 68.9995C74.6754 68.9995 74.5268 68.8525 74.5268 68.6713L74.5268 64.5782H71.4459L71.4459 68.6713C71.4459 68.8525 71.2973 68.9995 71.1142 68.9995C70.931 68.9995 70.7824 68.8525 70.7824 68.6713L70.7824 64.5782H66.4851C66.302 64.5782 66.1534 64.4312 66.1534 64.25V59.9997H62.0168C61.8336 59.9997 61.685 59.8527 61.685 59.6716C61.685 59.4904 61.8336 59.3434 62.0168 59.3434H66.1534V56.2962H62.0168C61.8336 56.2962 61.685 56.1492 61.685 55.9681C61.685 55.7869 61.8336 55.64 62.0168 55.64H66.1534V52.5928H62.0168C61.8336 52.5928 61.685 52.4458 61.685 52.2646C61.685 52.0835 61.8336 51.9365 62.0168 51.9365H66.1534V48.8893H62.0168C61.8336 48.8893 61.685 48.7423 61.685 48.5612C61.685 48.38 61.8336 48.233 62.0168 48.233H66.1534V45.1858H62.0168C61.8336 45.1858 61.685 45.0389 61.685 44.8577C61.685 44.6765 61.8336 44.5296 62.0168 44.5296H66.1534V40.2792C66.1534 40.0981 66.302 39.9511 66.4851 39.9511H70.7842V35.8579C70.7842 35.6768 70.9328 35.5298 71.116 35.5298C71.2991 35.5298 71.4477 35.6768 71.4477 35.8579V39.9511H74.5286V35.8579C74.5286 35.6768 74.6772 35.5298 74.8603 35.5298C75.0435 35.5298 75.1921 35.6768 75.1921 35.8579V39.9511L78.2729 39.9511V35.8579C78.2729 35.6768 78.4215 35.5298 78.6047 35.5298C78.7878 35.5298 78.9364 35.6768 78.9364 35.8579V39.9511H82.0173V35.8579C82.0173 35.6768 82.1659 35.5298 82.349 35.5298C82.5322 35.5298 82.6808 35.6768 82.6808 35.8579V39.9511H85.7616V35.8579C85.7616 35.6768 85.9102 35.5298 86.0934 35.5298C86.2765 35.5298 86.4251 35.6768 86.4251 35.8579V39.9511H90.7224C90.9056 39.9511 91.0542 40.0981 91.0542 40.2792V44.5296H95.1925C95.3757 44.5296 95.5243 44.6765 95.5243 44.8577C95.5243 45.0389 95.3757 45.1858 95.1925 45.1858H91.0524ZM90.3889 40.6073L66.815 40.6073V44.8542V44.8576V44.861V48.5577V48.5611V48.5645V52.2611V52.2646V52.268V55.9646V55.968V55.9715V59.6681V59.6715V59.6749V63.9236L90.3871 63.9236L90.3889 40.6073Z" fill="white"/>
<path d="M147.693 51.7364H119.24C119.035 51.7364 118.899 51.9477 118.899 52.2647C118.899 52.5816 119.035 52.7929 119.24 52.7929H147.659C147.864 52.7929 148 52.5816 148 52.2647C148 51.9477 147.864 51.7364 147.693 51.7364Z" fill="white"/>
<path d="M36.4498 51.7364H7.99668C7.79198 51.7364 7.65552 51.9477 7.65552 52.2647C7.65552 52.5816 7.79198 52.7929 7.99668 52.7929H36.4157C36.6204 52.7929 36.7569 52.5816 36.7569 52.2647C36.7569 51.9477 36.6204 51.7364 36.4498 51.7364Z" fill="white"/>
<path d="M29 19.3354V18.5367C29.7577 18.5367 30.2861 18.4913 30.5852 18.4006C30.8843 18.3139 31.0737 18.1561 31.1534 17.9273C31.2332 17.7025 31.2731 17.2943 31.2731 16.7026V2.44392C31.2731 1.85228 31.2332 1.44207 31.1534 1.2133C31.0737 0.988473 30.8843 0.830701 30.5852 0.739982C30.2861 0.653207 29.7577 0.60982 29 0.60982V-0.188904H35.7594V0.60982C35.0017 0.60982 34.4733 0.653207 34.1742 0.739982C33.8752 0.830701 33.6857 0.988473 33.606 1.2133C33.5262 1.44207 33.4863 1.85228 33.4863 2.44392V16.7026C33.4863 17.2943 33.5262 17.7025 33.606 17.9273C33.6857 18.1561 33.8752 18.3139 34.1742 18.4006C34.4733 18.4913 35.0017 18.5367 35.7594 18.5367V19.3354H29Z" fill="white"/>
<path d="M51.8505 16.8801C51.8505 17.4323 51.8904 17.811 51.9701 18.0161C52.0499 18.2251 52.2253 18.3632 52.4965 18.4302C52.7637 18.5012 53.2562 18.5367 53.974 18.5367V19.3354H47.7529V18.5367C48.4508 18.5367 48.9393 18.5012 49.2185 18.4302C49.4976 18.3632 49.6771 18.2212 49.7568 18.0042C49.8366 17.7873 49.8765 17.4126 49.8765 16.8801V9.66201C49.8765 8.69565 49.6532 7.89102 49.2065 7.24809C48.7559 6.60911 48.0122 6.28962 46.9753 6.28962C46.1379 6.28962 45.436 6.50656 44.8697 6.94044C44.2995 7.37431 43.7352 8.0054 43.1769 8.8337V16.8801C43.1769 17.4126 43.2168 17.7873 43.2965 18.0042C43.3763 18.2212 43.5557 18.3632 43.8349 18.4302C44.114 18.5012 44.6025 18.5367 45.3004 18.5367V19.3354H39.0793V18.5367C39.7972 18.5367 40.2917 18.5012 40.5628 18.4302C40.83 18.3632 41.0035 18.2251 41.0832 18.0161C41.163 17.811 41.2029 17.4323 41.2029 16.8801V7.91665C41.2029 7.42361 41.1431 7.09229 41.0234 6.92269C40.9038 6.75703 40.6645 6.6742 40.3056 6.6742H39.199V5.87547L42.2796 5.34299H43.0871V7.65041H43.1171C43.7152 6.78266 44.3692 6.15157 45.0791 5.75714C45.7849 5.36271 46.6862 5.1655 47.7829 5.1655C49.1985 5.1655 50.2314 5.50471 50.8814 6.18313C51.5275 6.86549 51.8505 7.93637 51.8505 9.39577V16.8801Z" fill="white"/>
<path d="M56.6359 19.3354V18.5367C57.3936 18.5367 57.922 18.4973 58.221 18.4184C58.5201 18.3395 58.7096 18.1857 58.7893 17.9569C58.8691 17.7321 58.9089 17.314 58.9089 16.7026V2.44392C58.9089 1.85228 58.8691 1.44207 58.7893 1.2133C58.7096 0.988473 58.5201 0.830701 58.221 0.739982C57.922 0.653207 57.3936 0.60982 56.6359 0.60982V-0.188904H63.3953C65.7082 -0.188904 67.5227 0.189751 68.8387 0.947058C70.1547 1.70831 70.8127 2.82849 70.8127 4.30761C70.8127 5.35285 70.4737 6.2699 69.7958 7.05877C69.1179 7.84763 68.1907 8.37025 67.0143 8.62663V8.68579C68.3701 8.90273 69.4967 9.48452 70.394 10.4312C71.2913 11.3778 71.7399 12.5808 71.7399 14.0402C71.7399 15.7757 71.0819 17.0911 69.7659 17.9865C68.4499 18.8858 66.5258 19.3354 63.9935 19.3354H56.6359ZM61.1521 8.33081H63.6645C65.2796 8.33081 66.4759 8.02907 67.2535 7.42559C68.0312 6.82605 68.42 5.89519 68.42 4.63302C68.42 3.13418 67.9474 2.10866 67.0023 1.55645C66.0532 1.00425 64.791 0.728149 63.2158 0.728149C62.5578 0.728149 62.0853 0.771536 61.7982 0.858311C61.507 0.94903 61.3276 1.08708 61.2598 1.27246C61.188 1.46179 61.1521 1.77339 61.1521 2.20727V8.33081ZM63.7243 18.448C67.433 18.448 69.2874 16.9688 69.2874 14.0106C69.2874 12.5118 68.8288 11.3482 67.9115 10.5199C66.9943 9.69159 65.6185 9.27744 63.7841 9.27744H61.1521V16.1701C61.1521 16.8012 61.2219 17.2745 61.3615 17.5901C61.5011 17.9056 61.7503 18.1265 62.1092 18.2527C62.4681 18.3829 63.0065 18.448 63.7243 18.448Z" fill="white"/>
<path d="M81.8491 19.6904C79.7754 19.6904 78.2202 19.0633 77.1833 17.809C76.1465 16.5586 75.6281 14.76 75.6281 12.4132C75.6281 10.086 76.1525 8.29531 77.2013 7.04102C78.2461 5.79067 79.7954 5.1655 81.8491 5.1655C83.9228 5.1655 85.4841 5.79067 86.5329 7.04102C87.5777 8.29531 88.1001 10.086 88.1001 12.4132C88.1001 14.76 87.5777 16.5586 86.5329 17.809C85.4841 19.0633 83.9228 19.6904 81.8491 19.6904ZM81.8491 18.8917C83.185 18.8917 84.182 18.3296 84.84 17.2055C85.498 16.0814 85.827 14.4839 85.827 12.4132C85.827 10.3621 85.498 8.77454 84.84 7.65041C84.182 6.52628 83.185 5.96422 81.8491 5.96422C80.5331 5.96422 79.5421 6.52628 78.8762 7.65041C78.2062 8.77454 77.8712 10.3621 77.8712 12.4132C77.8712 14.4839 78.2062 16.0814 78.8762 17.2055C79.5421 18.3296 80.5331 18.8917 81.8491 18.8917Z" fill="white"/>
<path d="M98.2393 19.6904C96.1656 19.6904 94.6103 19.0633 93.5735 17.809C92.5366 16.5586 92.0182 14.76 92.0182 12.4132C92.0182 10.086 92.5426 8.29531 93.5914 7.04102C94.6362 5.79067 96.1855 5.1655 98.2393 5.1655C100.313 5.1655 101.874 5.79067 102.923 7.04102C103.968 8.29531 104.49 10.086 104.49 12.4132C104.49 14.76 103.968 16.5586 102.923 17.809C101.874 19.0633 100.313 19.6904 98.2393 19.6904ZM98.2393 18.8917C99.5752 18.8917 100.572 18.3296 101.23 17.2055C101.888 16.0814 102.217 14.4839 102.217 12.4132C102.217 10.3621 101.888 8.77454 101.23 7.65041C100.572 6.52628 99.5752 5.96422 98.2393 5.96422C96.9233 5.96422 95.9323 6.52628 95.2663 7.65041C94.5963 8.77454 94.2614 10.3621 94.2614 12.4132C94.2614 14.4839 94.5963 16.0814 95.2663 17.2055C95.9323 18.3296 96.9233 18.8917 98.2393 18.8917Z" fill="white"/>
<path d="M113.612 19.6608C113.034 19.6608 112.556 19.6115 112.177 19.5129C111.798 19.4143 111.409 19.2861 111.01 19.1284C110.572 18.9509 110.253 18.8621 110.053 18.8621C109.854 18.8621 109.708 18.9016 109.617 18.9804C109.529 19.0593 109.445 19.2072 109.365 19.4242H108.797L108.468 14.5431H108.977C109.355 16.0419 109.918 17.1365 110.663 17.8267C111.413 18.517 112.346 18.8621 113.463 18.8621C114.42 18.8621 115.208 18.6294 115.826 18.164C116.444 17.7025 116.753 17.0675 116.753 16.2589C116.753 15.332 116.414 14.6417 115.736 14.1881C115.058 13.7345 114.161 13.3302 113.044 12.9752L112.207 12.709C111.09 12.354 110.233 11.9142 109.635 11.3896C109.036 10.869 108.737 10.1255 108.737 9.15911C108.737 7.9561 109.186 6.98974 110.083 6.26004C110.98 5.53035 112.147 5.1655 113.583 5.1655C114.041 5.1655 114.414 5.19508 114.701 5.25424C114.992 5.31341 115.307 5.40216 115.646 5.52048C116.005 5.63881 116.244 5.69798 116.364 5.69798C116.563 5.69798 116.697 5.65262 116.765 5.5619C116.837 5.47512 116.887 5.39229 116.914 5.31341C116.946 5.23452 116.962 5.18522 116.962 5.1655H117.441L117.65 9.5141H117.142C116.902 8.37025 116.528 7.49264 116.017 6.88127C115.511 6.2699 114.719 5.96422 113.642 5.96422C112.705 5.96422 111.938 6.19102 111.339 6.64461C110.741 7.09821 110.442 7.67999 110.442 8.38997C110.442 9.09995 110.735 9.68568 111.321 10.1472C111.912 10.6126 112.596 10.9538 113.373 11.1707L114.091 11.3778C115.646 11.8314 116.783 12.3639 117.501 12.9752C118.218 13.5866 118.577 14.4149 118.577 15.4601C118.577 16.7223 118.113 17.738 117.184 18.5071C116.258 19.2763 115.068 19.6608 113.612 19.6608Z" fill="white"/>
<path d="M126.414 19.6608C125.756 19.6608 125.161 19.4675 124.631 19.081C124.105 18.6984 123.841 17.9352 123.841 16.7913V6.31919H121.389V5.52047C122.485 5.52047 123.353 5.11026 123.991 4.28984C124.629 3.47337 125.028 2.41432 125.187 1.1127H125.815V5.52047H129.195V6.31919H125.815V16.7026C125.815 17.452 125.919 17.9746 126.126 18.2704C126.338 18.5663 126.623 18.7142 126.982 18.7142C127.321 18.7142 127.69 18.6057 128.088 18.3888C128.487 18.1718 128.796 17.9549 129.016 17.738L129.345 18.4184C128.846 18.8325 128.397 19.1421 127.999 19.3472C127.6 19.5563 127.071 19.6608 126.414 19.6608Z" fill="white"/>
</g>
<defs>
<clipPath id="clip0_51_2">
<rect width="153" height="68" fill="white"/>
</clipPath>
</defs>
</svg>
