<svg width="104" height="86" viewBox="0 0 104 86" fill="none" xmlns="http://www.w3.org/2000/svg">
<path d="M52.2953 64.6611C69.6032 64.6611 83.634 50.5541 83.634 33.1523C83.634 15.7504 69.6032 1.64345 52.2953 1.64345C34.9874 1.64345 20.9565 15.7504 20.9565 33.1523C20.9565 50.5541 34.9874 64.6611 52.2953 64.6611Z" fill="#1A6DAF"/>
<path d="M83.127 38.9326L53.4229 64.6044C68.2468 64.0944 80.4779 53.2136 83.127 38.9326Z" fill="#25ABBE"/>
<path d="M83.6342 32.1889L46.8281 64.2077C48.6318 64.5477 50.4355 64.7177 52.2955 64.7177C52.69 64.7177 53.0282 64.7177 53.4228 64.6611L83.0706 38.9893C83.4088 37.1192 83.6342 35.1357 83.6342 33.1523C83.6342 32.8122 83.6342 32.4722 83.6342 32.1889Z" fill="#1A6DAF"/>
<path d="M41.981 62.9043C43.6719 63.471 45.4192 63.9244 47.2229 64.2644L83.5781 32.2455C83.5217 29.9787 83.1835 27.7686 82.6762 25.6151L41.981 62.9043Z" fill="#FDCD12"/>
<path d="M79.2943 17.1145L33.5825 58.4273C36.1189 60.3541 38.9372 61.8275 41.9809 62.9043L82.6761 25.5584C81.9998 22.5549 80.8161 19.7213 79.2943 17.1145Z" fill="#F45EAC"/>
<path d="M52.2956 1.64345C37.0208 1.64345 24.2824 12.6375 21.5205 27.2019L54.3247 1.70012C53.6484 1.64345 52.972 1.64345 52.2956 1.64345Z" fill="#F45EAC"/>
<path d="M74.8416 11.2774L26.4243 50.9468C28.3971 53.8937 30.8771 56.4439 33.7517 58.5407L79.3507 17.1712C78.0543 15.0177 76.5325 13.0342 74.8416 11.2774Z" fill="#1A6DAF"/>
<path d="M58.89 2.3235L21.0693 31.7922L21.0129 31.8488C21.0129 32.3022 20.9565 32.6989 20.9565 33.1523C20.9565 34.2857 21.0129 35.4758 21.1256 36.5525L67.3447 5.49705C64.7519 4.02362 61.8773 2.94688 58.89 2.3235Z" fill="#1A6DAF"/>
<path d="M70.6702 7.59386L23.1548 44.7697C24.0003 46.9232 25.1275 49.02 26.4239 50.8901L74.8412 11.2208C73.5448 9.91735 72.192 8.72727 70.6702 7.59386Z" fill="#25ABBE"/>
<path d="M67.345 5.49704L21.126 36.5525C21.4078 39.4427 22.1405 42.1629 23.1551 44.7697L70.6705 7.59385C69.5996 6.85713 68.5287 6.12042 67.345 5.49704Z" fill="#F45EAC"/>
<path d="M53.8737 1.64346L22.7041 22.6116C21.5768 25.8418 20.9568 29.242 20.9004 32.8689L59.7356 2.49352C57.8192 2.04016 55.9028 1.7568 53.8737 1.64346Z" fill="#FDCD12"/>
<path d="M1.2251 84.9256V75.3566H4.53291C5.44846 75.3566 6.1942 75.5583 6.77011 75.9616C7.34603 76.3625 7.63398 76.9663 7.63398 77.773C7.63398 78.1441 7.54907 78.5067 7.37925 78.8605C7.20697 79.2144 6.96578 79.4891 6.65567 79.6845V79.7439C7.18236 79.9394 7.58968 80.2413 7.87764 80.6496C8.1656 81.0554 8.30958 81.5281 8.30958 82.0675C8.30958 82.9113 8.00931 83.598 7.40879 84.1276C6.80826 84.6596 6.00592 84.9256 5.00176 84.9256H1.2251ZM5.00176 80.3044H2.30678V83.9828H4.86886C5.58998 83.9828 6.16343 83.8281 6.58922 83.5188C7.01254 83.2095 7.2242 82.7455 7.2242 82.1269C7.2242 80.9119 6.48339 80.3044 5.00176 80.3044ZM4.64735 76.2548H2.30678V79.421H4.83932C5.39555 79.421 5.8201 79.2762 6.11298 78.9867C6.40586 78.6972 6.5523 78.3062 6.5523 77.8138C6.5523 77.3139 6.38371 76.9292 6.04653 76.6594C5.70935 76.3897 5.24295 76.2548 4.64735 76.2548Z" fill="white"/>
<path d="M13.995 77.2125C13.2197 77.9474 12.8321 78.9236 12.8321 80.1411C12.8321 81.3586 13.2197 82.3348 13.995 83.0697C14.7703 83.8046 15.7141 84.1721 16.8266 84.1721C17.939 84.1721 18.8829 83.8046 19.6581 83.0697C20.4359 82.3348 20.8247 81.3586 20.8247 80.1411C20.8247 78.9236 20.4359 77.9474 19.6581 77.2125C18.8829 76.4776 17.939 76.1101 16.8266 76.1101C15.7141 76.1101 14.7703 76.4776 13.995 77.2125ZM21.9212 80.1411C21.9212 81.6035 21.4363 82.7975 20.4666 83.723C19.4945 84.6509 18.2811 85.1149 16.8266 85.1149C15.3622 85.1149 14.1476 84.6534 13.1828 83.7304C12.2156 82.8099 11.7319 81.6134 11.7319 80.1411C11.7319 78.6786 12.218 77.4834 13.1902 76.5555C14.1599 75.63 15.372 75.1673 16.8266 75.1673C18.291 75.1673 19.5068 75.6276 20.474 76.5481C21.4388 77.4711 21.9212 78.6687 21.9212 80.1411Z" fill="white"/>
<path d="M27.6803 77.2125C26.905 77.9474 26.5174 78.9236 26.5174 80.1411C26.5174 81.3586 26.905 82.3348 27.6803 83.0697C28.4555 83.8046 29.4006 84.1721 30.5155 84.1721C31.628 84.1721 32.5718 83.8046 33.3471 83.0697C34.1224 82.3348 34.51 81.3586 34.51 80.1411C34.51 78.9236 34.1224 77.9474 33.3471 77.2125C32.5718 76.4776 31.628 76.1101 30.5155 76.1101C29.4006 76.1101 28.4555 76.4776 27.6803 77.2125ZM35.6065 80.1411C35.6065 81.6035 35.1216 82.7975 34.1519 83.723C33.1797 84.6509 31.9676 85.1149 30.5155 85.1149C29.0511 85.1149 27.8353 84.6534 26.8681 83.7304C25.9033 82.8099 25.4209 81.6134 25.4209 80.1411C25.4209 78.6786 25.9057 77.4834 26.8755 76.5555C27.8476 75.63 29.061 75.1673 30.5155 75.1673C31.9775 75.1673 33.192 75.6276 34.1593 76.5481C35.1241 77.4711 35.6065 78.6687 35.6065 80.1411Z" fill="white"/>
<path d="M45.3857 75.9468L44.9169 76.8153C44.1564 76.3353 43.3171 76.0952 42.3991 76.0952C41.7174 76.0952 41.2104 76.2462 40.8781 76.5481C40.5458 76.8524 40.3797 77.2112 40.3797 77.6245C40.3797 78.0254 40.5114 78.3545 40.7747 78.6118C41.0381 78.8667 41.4626 79.0523 42.0484 79.1686L43.4402 79.4655C45.1187 79.8169 45.958 80.7585 45.958 82.2902C45.958 83.0944 45.6429 83.7663 45.0129 84.3057C44.3828 84.8452 43.482 85.1149 42.3105 85.1149C41.6386 85.1149 41.0602 85.0567 40.5754 84.9404C40.093 84.8217 39.5786 84.62 39.0322 84.3354L39.4125 83.3332C40.3502 83.8727 41.3063 84.1424 42.281 84.1424C43.1793 84.1424 43.8364 83.9741 44.2524 83.6376C44.6658 83.2986 44.8726 82.8544 44.8726 82.3051C44.8726 81.7656 44.7261 81.3511 44.4333 81.0616C44.1404 80.7721 43.6482 80.5531 42.9566 80.4046L41.4171 80.0817C40.7944 79.9555 40.2923 79.6858 39.9109 79.2725C39.5294 78.8593 39.3386 78.3297 39.3386 77.6839C39.3386 76.9366 39.6094 76.3303 40.1508 75.8651C40.6947 75.3999 41.4442 75.1673 42.3991 75.1673C43.5509 75.1673 44.5465 75.4271 45.3857 75.9468Z" fill="white"/>
<path d="M52.0164 76.2994H49.0889V75.3566H56.0404V76.2994H53.1129V84.9256H52.0164V76.2994Z" fill="white"/>
<path d="M67.182 76.1361L66.7279 77.0195C65.8296 76.4132 64.8931 76.1101 63.9185 76.1101C62.747 76.1101 61.7859 76.4874 61.0352 77.2422C60.2821 77.9969 59.9055 78.9583 59.9055 80.1262C59.9055 81.3734 60.2796 82.3471 61.0278 83.0474C61.7736 83.7502 62.7322 84.1016 63.9037 84.1016C64.5165 84.1016 65.0408 84.0397 65.4764 83.916C65.9096 83.7923 66.376 83.5695 66.8756 83.2479L67.1968 84.2166C66.2787 84.8155 65.1269 85.1149 63.7413 85.1149C63.0964 85.1149 62.4836 85.0147 61.9028 84.8142C61.3244 84.6138 60.8002 84.3144 60.3301 83.916C59.8625 83.5176 59.4921 82.993 59.2189 82.3422C58.9457 81.6889 58.8091 80.9503 58.8091 80.1262C58.8091 78.6737 59.3038 77.4834 60.2932 76.5555C61.285 75.63 62.4935 75.1673 63.9185 75.1673C65.1958 75.1673 66.2837 75.4902 67.182 76.1361Z" fill="white"/>
<path d="M72.7381 77.2125C71.9604 77.9474 71.5715 78.9236 71.5715 80.1411C71.5715 81.3586 71.9604 82.3348 72.7381 83.0697C73.5134 83.8046 74.4573 84.1721 75.5697 84.1721C76.6822 84.1721 77.626 83.8046 78.4013 83.0697C79.1766 82.3348 79.5642 81.3586 79.5642 80.1411C79.5642 78.9236 79.1766 77.9474 78.4013 77.2125C77.626 76.4776 76.6822 76.1101 75.5697 76.1101C74.4573 76.1101 73.5134 76.4776 72.7381 77.2125ZM80.6643 80.1411C80.6643 81.6035 80.1783 82.7975 79.2061 83.723C78.2364 84.6509 77.0243 85.1149 75.5697 85.1149C74.1053 85.1149 72.8895 84.6534 71.9223 83.7304C70.9575 82.8099 70.4751 81.6134 70.4751 80.1411C70.4751 78.6786 70.9599 77.4834 71.9296 76.5555C72.9018 75.63 74.1152 75.1673 75.5697 75.1673C77.0341 75.1673 78.2487 75.6276 79.2135 76.5481C80.1807 77.4711 80.6643 78.6687 80.6643 80.1411Z" fill="white"/>
<path d="M84.5259 84.9256V75.3566H87.9961C89.6353 75.3566 90.9015 75.7686 91.7949 76.5926C92.6884 77.4166 93.1351 78.5797 93.1351 80.0817C93.1351 81.6233 92.6441 82.8161 91.662 83.6599C90.6825 84.5037 89.3584 84.9256 87.6897 84.9256H84.5259ZM87.9961 76.2994H85.626V83.9679H87.6897C88.9966 83.9679 90.0451 83.6487 90.8351 83.0103C91.6251 82.3719 92.0201 81.3957 92.0201 80.0817C92.0201 77.5602 90.6788 76.2994 87.9961 76.2994Z" fill="white"/>
<path d="M103.177 84.9256H97.0005V75.3566H102.955V76.2994H98.0969V79.4655H102.472V80.4046H98.0969V83.9679H103.177V84.9256Z" fill="white"/>
<path d="M52.4029 60.1904C67.3313 60.1904 79.4332 48.0229 79.4332 33.0134C79.4332 18.004 67.3313 5.83643 52.4029 5.83643C37.4744 5.83643 25.3726 18.004 25.3726 33.0134C25.3726 48.0229 37.4744 60.1904 52.4029 60.1904Z" fill="#2F2933"/>
<path d="M47.875 29.1097C48.3507 29.1097 48.7417 28.72 48.7417 28.2383C48.7417 27.7565 48.3542 27.3669 47.875 27.3669C47.3994 27.3669 47.0083 27.7565 47.0083 28.2383C47.0083 28.72 47.3994 29.1097 47.875 29.1097ZM47.875 27.8415C48.0935 27.8415 48.2696 28.0187 48.2696 28.2383C48.2696 28.4579 48.0935 28.635 47.875 28.635C47.6566 28.635 47.4804 28.4579 47.4804 28.2383C47.4804 28.0187 47.6566 27.8415 47.875 27.8415Z" fill="white"/>
<path d="M57.2754 29.1026C57.7511 29.1026 58.1421 28.7129 58.1421 28.2312C58.1421 27.7494 57.7546 27.3598 57.2754 27.3598C56.7998 27.3598 56.4087 27.7494 56.4087 28.2312C56.4087 28.7129 56.7963 29.1026 57.2754 29.1026ZM57.2754 27.8344C57.4939 27.8344 57.67 28.0116 57.67 28.2312C57.67 28.4508 57.4939 28.6279 57.2754 28.6279C57.057 28.6279 56.8808 28.4508 56.8808 28.2312C56.8808 28.0116 57.057 27.8344 57.2754 27.8344Z" fill="white"/>
<path d="M48.7417 37.6787C48.7417 37.2005 48.3542 36.8073 47.875 36.8073C47.3994 36.8073 47.0083 37.197 47.0083 37.6787C47.0083 38.1569 47.3959 38.5501 47.875 38.5501C48.3507 38.5501 48.7417 38.1569 48.7417 37.6787ZM47.4804 37.6787C47.4804 37.4591 47.6566 37.282 47.875 37.282C48.0935 37.282 48.2696 37.4591 48.2696 37.6787C48.2696 37.8984 48.0935 38.0755 47.875 38.0755C47.6566 38.0755 47.4804 37.8984 47.4804 37.6787Z" fill="white"/>
<path d="M57.2754 38.5395C57.7511 38.5395 58.1421 38.1499 58.1421 37.6681C58.1421 37.1899 57.7546 36.7967 57.2754 36.7967C56.7998 36.7967 56.4087 37.1863 56.4087 37.6681C56.4087 38.1499 56.7963 38.5395 57.2754 38.5395ZM57.2754 37.2749C57.4939 37.2749 57.67 37.452 57.67 37.6716C57.67 37.8913 57.4939 38.0684 57.2754 38.0684C57.057 38.0684 56.8808 37.8913 56.8808 37.6716C56.8808 37.452 57.057 37.2749 57.2754 37.2749Z" fill="white"/>
<path d="M39.7117 33.3606C40.1733 33.3606 40.5608 33.0382 40.67 32.606H45.3983V33.3003H43.7564C43.6261 33.3003 43.5204 33.4066 43.5204 33.5377C43.5204 33.6687 43.6261 33.775 43.7564 33.775H45.3983V34.4729H43.0201C42.9144 34.0372 42.5268 33.7148 42.0617 33.7148C41.5156 33.7148 41.0717 34.1611 41.0717 34.7102C41.0717 35.2593 41.5156 35.7056 42.0617 35.7056C42.5268 35.7056 42.9144 35.3833 43.0201 34.9475H45.3983V35.6419H43.7564C43.6261 35.6419 43.5204 35.7481 43.5204 35.8792C43.5204 36.0103 43.6261 36.1165 43.7564 36.1165H45.3983V36.8108H41.6037C41.4945 36.3822 41.1105 36.0599 40.6489 36.0599C40.1028 36.0599 39.6589 36.5062 39.6589 37.0553C39.6589 37.6043 40.1028 38.0507 40.6489 38.0507C41.114 38.0507 41.5051 37.7248 41.6072 37.2855H45.3912V37.955C45.3912 37.9869 45.3983 38.0153 45.4088 38.0436C45.4194 38.0719 45.437 38.1003 45.4582 38.1215L47.4418 40.1159C47.4629 40.1371 47.4911 40.1549 47.5193 40.1655C47.5475 40.1761 47.5792 40.1832 47.6074 40.1832H48.2697V41.8375C48.2697 41.9686 48.3754 42.0748 48.5058 42.0748C48.6361 42.0748 48.7418 41.9686 48.7418 41.8375V40.1832H49.4359V42.5743C49.0026 42.6806 48.6784 43.0702 48.6784 43.5378C48.6784 44.0869 49.1224 44.5332 49.6685 44.5332C50.2146 44.5332 50.6585 44.0869 50.6585 43.5378C50.6585 43.0738 50.3379 42.6841 49.908 42.5778V40.1832H50.5986V41.8375C50.5986 41.9686 50.7043 42.0748 50.8347 42.0748C50.965 42.0748 51.0707 41.9686 51.0707 41.8375V40.1832H51.7613V45.4118C51.3314 45.518 51.0073 45.9077 51.0073 46.3753C51.0073 46.9244 51.4512 47.3707 51.9973 47.3707C52.5435 47.3707 52.9874 46.9244 52.9874 46.3753C52.9874 45.9077 52.6668 45.518 52.2334 45.4118V40.1761H52.9275V41.8304C52.9275 41.9615 53.0332 42.0677 53.1635 42.0677C53.2939 42.0677 53.3996 41.9615 53.3996 41.8304V40.1761H54.0902V42.5708C53.6568 42.677 53.3362 43.0667 53.3362 43.5343C53.3362 44.0834 53.7801 44.5297 54.3262 44.5297C54.8723 44.5297 55.3163 44.0834 55.3163 43.5343C55.3163 43.0667 54.9956 42.677 54.5623 42.5708V40.1761H55.2528V41.8304C55.2528 41.9615 55.3585 42.0677 55.4889 42.0677C55.6193 42.0677 55.725 41.9615 55.725 41.8304V40.1761H56.419V43.9877C55.9857 44.094 55.6651 44.4836 55.6651 44.9512C55.6651 45.5003 56.109 45.9467 56.6551 45.9467C57.2012 45.9467 57.6451 45.5003 57.6451 44.9512C57.6451 44.4836 57.3245 44.094 56.8912 43.9877V40.1761H57.5535C57.5852 40.1761 57.6134 40.169 57.6416 40.1584C57.6698 40.1478 57.698 40.1301 57.7191 40.1088L59.7027 38.1144C59.7062 38.1109 59.7063 38.1109 59.7063 38.1074C59.7239 38.0861 59.7415 38.0648 59.7521 38.0365C59.7626 38.0082 59.7697 37.9763 59.7697 37.9444V37.2749H61.4115C61.5419 37.2749 61.6476 37.1686 61.6476 37.0376C61.6476 36.9065 61.5419 36.8002 61.4115 36.8002H59.7697V36.1059H62.1479C62.2536 36.5416 62.6411 36.8675 63.1062 36.8675C63.6523 36.8675 64.0962 36.4212 64.0962 35.8721C64.0962 35.323 63.6523 34.8767 63.1062 34.8767C62.6447 34.8767 62.2571 35.1991 62.1514 35.6312H59.7697V34.9369H61.4115C61.5419 34.9369 61.6476 34.8306 61.6476 34.6996C61.6476 34.5685 61.5419 34.4622 61.4115 34.4622H59.7697V33.7644H64.4873C64.593 34.2001 64.9806 34.526 65.4456 34.526C65.9918 34.526 66.4357 34.0797 66.4357 33.5306C66.4357 32.9815 65.9918 32.5352 65.4456 32.5352C64.9841 32.5352 64.5965 32.8575 64.4908 33.2897H59.7626V32.5954H61.4045C61.5348 32.5954 61.6405 32.4891 61.6405 32.3581C61.6405 32.227 61.5348 32.1207 61.4045 32.1207H59.7626V31.4264H62.1408C62.2465 31.8621 62.6341 32.1845 63.0992 32.1845C63.6453 32.1845 64.0892 31.7381 64.0892 31.1891C64.0892 30.64 63.6453 30.1937 63.0992 30.1937C62.6341 30.1937 62.2465 30.516 62.1408 30.9517H59.7626V30.2539H61.4045C61.5348 30.2539 61.6405 30.1476 61.6405 30.0165C61.6405 29.8855 61.5348 29.7792 61.4045 29.7792H59.7626V29.0849H63.5501C63.6558 29.5206 64.0434 29.843 64.5085 29.843C65.0546 29.843 65.4985 29.3966 65.4985 28.8476C65.4985 28.2985 65.0546 27.8521 64.5085 27.8521C64.0434 27.8521 63.6558 28.1745 63.5501 28.6102H59.7626V27.9407C59.7626 27.9088 59.7556 27.8805 59.745 27.8521C59.7344 27.8238 59.7168 27.7955 59.6957 27.7742L57.7121 25.7799C57.6909 25.7586 57.6628 25.7409 57.6346 25.7303C57.6064 25.7196 57.5747 25.7125 57.5465 25.7125H56.8841V24.0618C56.8841 23.9307 56.7784 23.8245 56.6481 23.8245C56.5177 23.8245 56.412 23.9307 56.412 24.0618V25.7125H55.7144V23.325C56.1442 23.2187 56.4684 22.829 56.4684 22.3615C56.4684 21.8124 56.0244 21.366 55.4783 21.366C54.9322 21.366 54.4883 21.8124 54.4883 22.3615C54.4883 22.829 54.8089 23.2187 55.2423 23.325V25.7125H54.5517V24.0618C54.5517 23.9307 54.446 23.8245 54.3157 23.8245C54.1853 23.8245 54.0796 23.9307 54.0796 24.0618V25.7125H53.389V20.9764C53.8189 20.8701 54.143 20.4804 54.143 20.0129C54.143 19.4638 53.6991 19.0174 53.153 19.0174C52.6069 19.0174 52.1629 19.4638 52.1629 20.0129C52.1629 20.4804 52.4836 20.8701 52.9169 20.9764V25.7267H52.2228V24.076C52.2228 23.9449 52.1171 23.8386 51.9868 23.8386C51.8564 23.8386 51.7507 23.9449 51.7507 24.076V25.7267H51.0602V23.3392C51.4935 23.2329 51.8141 22.8432 51.8141 22.3756C51.8141 21.8266 51.3702 21.3802 50.8241 21.3802C50.278 21.3802 49.8341 21.8266 49.8341 22.3756C49.8341 22.8432 50.1547 23.2329 50.588 23.3392V25.7267H49.8975V24.076C49.8975 23.9449 49.7918 23.8386 49.6614 23.8386C49.5311 23.8386 49.4254 23.9449 49.4254 24.076V25.7267H48.7313V21.908C49.14 21.7876 49.443 21.4086 49.443 20.9587C49.443 20.4096 48.999 19.9633 48.4529 19.9633C47.9068 19.9633 47.4629 20.4096 47.4629 20.9587C47.4629 21.4404 47.8082 21.8443 48.2592 21.9328V25.7267H47.5968C47.5651 25.7267 47.5369 25.7338 47.5087 25.7444C47.4805 25.7551 47.4523 25.7728 47.4312 25.794L45.4476 27.7884C45.4265 27.8096 45.4088 27.838 45.3983 27.8663C45.3877 27.8947 45.3807 27.9265 45.3807 27.9549V28.6244H43.7388C43.6084 28.6244 43.5028 28.7307 43.5028 28.8617C43.5028 28.9928 43.6084 29.0991 43.7388 29.0991H45.3807V29.7934H43.0024C42.8967 29.3577 42.5092 29.0318 42.0441 29.0318C41.498 29.0318 41.0541 29.4781 41.0541 30.0272C41.0541 30.5762 41.498 31.0226 42.0441 31.0226C42.5057 31.0226 42.8932 30.7002 42.9989 30.2716H45.3807V30.9694H43.7388C43.6084 30.9694 43.5028 31.0757 43.5028 31.2068C43.5028 31.3379 43.6084 31.4441 43.7388 31.4441H45.3807V32.1384H40.67C40.5643 31.7027 40.1768 31.3768 39.7117 31.3768C39.1656 31.3768 38.7217 31.8232 38.7217 32.3722C38.7217 32.9142 39.1656 33.3606 39.7117 33.3606ZM42.0582 35.2274C41.7728 35.2274 41.5403 34.9936 41.5403 34.7067C41.5403 34.4197 41.7728 34.1859 42.0582 34.1859C42.3436 34.1859 42.5761 34.4197 42.5761 34.7067C42.5761 34.9936 42.3436 35.2274 42.0582 35.2274ZM40.6489 37.5654C40.3635 37.5654 40.131 37.3316 40.131 37.0446C40.131 36.7577 40.3635 36.5239 40.6489 36.5239C40.9343 36.5239 41.1668 36.7577 41.1668 37.0446C41.1668 37.3316 40.9343 37.5654 40.6489 37.5654ZM63.0992 35.3549C63.3845 35.3549 63.6171 35.5887 63.6171 35.8757C63.6171 36.1626 63.3845 36.3964 63.0992 36.3964C62.8138 36.3964 62.5812 36.1626 62.5812 35.8757C62.5812 35.5887 62.8138 35.3549 63.0992 35.3549ZM65.4456 33.0169C65.731 33.0169 65.9636 33.2507 65.9636 33.5377C65.9636 33.8246 65.731 34.0584 65.4456 34.0584C65.1603 34.0584 64.9277 33.8246 64.9277 33.5377C64.9277 33.2507 65.1603 33.0169 65.4456 33.0169ZM63.0992 30.679C63.3845 30.679 63.6171 30.9128 63.6171 31.1997C63.6171 31.4866 63.3845 31.7204 63.0992 31.7204C62.8138 31.7204 62.5812 31.4866 62.5812 31.1997C62.5812 30.9128 62.8138 30.679 63.0992 30.679ZM64.5085 28.3445C64.7938 28.3445 65.0264 28.5783 65.0264 28.8653C65.0264 29.1522 64.7938 29.386 64.5085 29.386C64.2231 29.386 63.9905 29.1522 63.9905 28.8653C63.9905 28.5783 64.2231 28.3445 64.5085 28.3445ZM50.1899 43.5307C50.1899 43.8177 49.9574 44.0515 49.672 44.0515C49.3866 44.0515 49.1541 43.8177 49.1541 43.5307C49.1541 43.2438 49.3866 43.01 49.672 43.01C49.9574 43.01 50.1899 43.2438 50.1899 43.5307ZM52.5153 46.3647C52.5153 46.6516 52.2827 46.8854 51.9973 46.8854C51.712 46.8854 51.4794 46.6516 51.4794 46.3647C51.4794 46.0777 51.712 45.8439 51.9973 45.8439C52.2827 45.8439 52.5153 46.0777 52.5153 46.3647ZM54.8406 43.5307C54.8406 43.8177 54.6081 44.0515 54.3227 44.0515C54.0373 44.0515 53.8048 43.8177 53.8048 43.5307C53.8048 43.2438 54.0373 43.01 54.3227 43.01C54.6081 43.01 54.8406 43.2438 54.8406 43.5307ZM57.1624 44.9512C57.1624 45.2382 56.9299 45.472 56.6445 45.472C56.3591 45.472 56.1266 45.2382 56.1266 44.9512C56.1266 44.6643 56.3591 44.4305 56.6445 44.4305C56.9299 44.427 57.1624 44.6608 57.1624 44.9512ZM54.9604 22.3792C54.9604 22.0922 55.1929 21.8584 55.4783 21.8584C55.7637 21.8584 55.9963 22.0922 55.9963 22.3792C55.9963 22.6661 55.7672 22.8964 55.4819 22.8999H55.4783H55.4748C55.1929 22.8964 54.9604 22.6626 54.9604 22.3792ZM52.6421 20.0164C52.6421 19.7295 52.8746 19.4957 53.16 19.4957C53.4454 19.4957 53.6779 19.7295 53.6779 20.0164C53.6779 20.3033 53.4454 20.5371 53.16 20.5371C52.8746 20.5371 52.6421 20.3033 52.6421 20.0164ZM50.3167 22.3792C50.3167 22.0922 50.5493 21.8584 50.8347 21.8584C51.12 21.8584 51.3526 22.0922 51.3526 22.3792C51.3526 22.6661 51.1236 22.8964 50.8382 22.8999H50.8347H50.8311C50.5493 22.8964 50.3167 22.6626 50.3167 22.3792ZM47.9491 20.9587C47.9491 20.6717 48.1816 20.4379 48.467 20.4379C48.7524 20.4379 48.985 20.6717 48.985 20.9587C48.985 21.2456 48.7524 21.4794 48.467 21.4794C48.1816 21.4794 47.9491 21.2456 47.9491 20.9587ZM45.8633 28.0576L47.7131 26.1979H48.5023C48.5058 26.1979 48.5093 26.2014 48.5128 26.2014C48.5164 26.2014 48.5199 26.1979 48.5234 26.1979H49.6685C49.672 26.1979 49.6755 26.2014 49.679 26.2014C49.6826 26.2014 49.6861 26.1979 49.6896 26.1979H50.8276C50.8311 26.1979 50.8347 26.2014 50.8382 26.2014C50.8417 26.2014 50.8452 26.1979 50.8488 26.1979H51.9868C51.9903 26.1979 51.9938 26.2014 51.9973 26.2014C52.0009 26.2014 52.0044 26.1979 52.0079 26.1979H53.153C53.1565 26.1979 53.16 26.2014 53.1635 26.2014C53.1671 26.2014 53.1706 26.1979 53.1741 26.1979H54.3121C54.3157 26.1979 54.3192 26.2014 54.3227 26.2014C54.3262 26.2014 54.3297 26.1979 54.3333 26.1979H55.4713C55.4748 26.1979 55.4783 26.2014 55.4819 26.2014C55.4854 26.2014 55.4889 26.1979 55.4924 26.1979H56.6375C56.641 26.1979 56.6445 26.2014 56.6481 26.2014C56.6516 26.2014 56.6551 26.1979 56.6586 26.1979H57.4478L59.2976 28.0576V37.8452L57.4478 39.705H47.7131L45.8633 37.8452V28.0576ZM42.0582 30.5479C41.7728 30.5479 41.5403 30.3141 41.5403 30.0272C41.5403 29.7402 41.7728 29.5064 42.0582 29.5064C42.3436 29.5064 42.5761 29.7402 42.5761 30.0272C42.5761 30.3141 42.3436 30.5479 42.0582 30.5479ZM39.7117 31.8444C39.9971 31.8444 40.2296 32.0782 40.2296 32.3651C40.2296 32.6521 39.9971 32.8859 39.7117 32.8859C39.4263 32.8859 39.1903 32.6521 39.1903 32.3651C39.1903 32.0782 39.4228 31.8444 39.7117 31.8444Z" fill="white"/>
</svg>
