<svg width="325" height="67" viewBox="0 0 325 67" fill="none" xmlns="http://www.w3.org/2000/svg">
<path d="M72.2814 29.975C73.1258 31.2356 73.7727 32.6169 74.1999 34.0716C74.9444 36.3082 75.2927 38.6568 75.2293 41.0125C75.1344 44.0733 74.4229 47.0838 73.137 49.8651C71.8128 52.8021 69.8137 55.3874 67.3013 57.4121C66.3941 58.1575 65.4259 58.8259 64.4068 59.4105C64.2731 59.4837 64.1461 59.5836 64.0191 59.6769C63.8654 59.6769 63.7651 59.7768 63.6448 59.8368C61.4483 61.0076 59.0755 61.8152 56.6192 62.2281C56.5678 62.2032 56.5099 62.195 56.4535 62.2046C56.3972 62.2141 56.3453 62.241 56.305 62.2814C55.247 62.4546 54.1749 62.5282 53.103 62.5012C52.7076 62.4771 52.3334 62.3143 52.0469 62.0416C51.5813 61.62 51.2218 61.0952 50.9974 60.5095C50.8169 60.1099 50.6565 59.7102 50.4893 59.3105C50.2821 58.5712 50.0548 57.8318 49.861 57.0857C49.4397 55.3999 49.1271 53.6889 48.9251 51.9633C48.4923 48.6176 48.3113 45.2443 48.3837 41.8717C48.4429 36.9834 49.2915 32.1365 50.8971 27.517C51.3672 26.2128 51.9164 24.9382 52.5415 23.7002C53.1838 22.387 54.076 21.2106 55.1686 20.2364C55.4019 19.9982 55.6881 19.818 56.0042 19.7102C56.1312 19.7901 56.2448 19.8901 56.1111 20.0433C55.9724 20.2026 55.8555 20.3795 55.7635 20.5695C55.4039 21.3107 55.1238 22.0877 54.928 22.8876C54.2991 25.2324 53.8675 27.6253 53.6378 30.0416C53.5977 30.4612 53.5977 30.8809 53.5309 31.2939C53.3892 32.2789 53.2977 33.2705 53.2568 34.2647C53.1514 35.1711 53.1067 36.0835 53.1231 36.9958C53.1287 37.0823 53.1287 37.1691 53.1231 37.2556C53.0629 38.1415 53.0095 39.0341 52.9426 39.92C52.9316 40.016 52.9543 40.1128 53.0066 40.1942C53.059 40.2755 53.1379 40.3363 53.23 40.3663C53.54 40.4875 53.857 40.5898 54.1793 40.6727C55.6033 41.1738 57.0953 41.4567 58.6045 41.512C60.3762 41.6511 62.1585 41.557 63.9055 41.2323C65.5954 40.8891 67.1983 40.2094 68.6182 39.2339C69.6658 38.5231 70.5406 37.5877 71.1784 36.4962C71.59 35.8223 71.8902 35.0869 72.0675 34.318C72.2738 33.2879 72.3524 32.2365 72.3014 31.1873C72.3396 30.8373 72.2842 30.4834 72.141 30.1615C72.0608 30.0283 72.1945 29.975 72.2814 29.975Z" fill="#EC7026"/>
<path d="M72.2948 31.1807C72.3329 30.8306 72.2776 30.4767 72.1343 30.1548C72.0541 30.0216 72.1343 29.975 72.2814 29.9483C72.0314 29.3976 71.6927 28.8913 71.2787 28.4496L71.2386 28.5428C71.2386 28.6028 71.1651 28.6761 71.0982 28.6095C71.0314 28.5429 71.0982 28.5029 71.1651 28.4696L71.2586 28.4296C71.2445 28.3786 71.2243 28.3294 71.1985 28.2831C70.3112 27.012 69.2719 25.8533 68.1035 24.8326C66.1508 23.1531 63.9357 21.8031 61.5458 20.8359C60.112 20.2001 58.5952 19.7695 57.0403 19.557H56.9401H56.7195C56.4855 19.5569 56.2553 19.6165 56.051 19.7302L56.1312 19.7835V19.8568C56.1339 19.8722 56.1339 19.888 56.1312 19.9034L56.0911 19.9567C55.9522 20.1158 55.8352 20.2928 55.7435 20.4829C55.3838 21.2241 55.1037 22.0011 54.9079 22.801C54.2792 25.1458 53.8477 27.5388 53.6178 29.955C53.5777 30.3747 53.5777 30.7943 53.5108 31.2073V31.3405V31.4205V31.5537C53.5108 31.6669 53.5108 31.7802 53.4707 31.8934V32.0066C53.4707 32.0866 53.4707 32.1732 53.4707 32.2531V32.373V32.4929C53.4707 32.6705 53.4574 32.8504 53.4306 33.0324V33.2922C53.4306 33.3855 53.4306 33.4721 53.4306 33.5653C53.4306 33.6586 53.4306 33.9384 53.3972 34.1249C53.2919 35.0313 53.2473 35.9436 53.2635 36.8559C53.2697 36.9424 53.2697 37.0292 53.2635 37.1157C53.2033 38.0083 53.1499 38.8942 53.083 39.7802C53.0721 39.8761 53.0947 39.973 53.147 40.0543C53.1994 40.1356 53.2783 40.1964 53.3705 40.2264C53.6804 40.3476 53.9974 40.4499 54.3197 40.5329C55.7437 41.0339 57.2358 41.3169 58.7449 41.3722C60.5166 41.5111 62.2989 41.4171 64.0459 41.0924C65.7357 40.7489 67.3385 40.0692 68.7586 39.0941C69.8062 38.3832 70.681 37.4478 71.3188 36.3563C71.7303 35.6824 72.0305 34.947 72.2079 34.1782C72.3544 33.1858 72.3836 32.1798 72.2948 31.1807ZM71.9004 29.8484C71.7533 29.6952 71.653 29.602 71.7466 29.4354C71.7878 29.4508 71.825 29.4749 71.8558 29.5061C71.8866 29.5374 71.9102 29.5749 71.9248 29.6162C71.9395 29.6575 71.9449 29.7014 71.9407 29.745C71.9364 29.7886 71.9227 29.8307 71.9004 29.8684V29.8484Z" fill="#F59124"/>
<path d="M40.1615 57.1524C40.1949 57.4987 40.2417 57.8185 40.2685 58.1982C40.3038 58.4605 40.2525 58.7273 40.1222 58.958C39.992 59.1887 39.7899 59.3709 39.5465 59.4771C39.1033 59.6972 38.6226 59.8328 38.1294 59.8768C35.7448 60.1754 33.3233 59.8494 31.1038 58.9309C30.9572 58.835 30.794 58.7673 30.6225 58.731C30.1819 58.4172 29.717 58.1388 29.2321 57.8984C29.1623 57.7879 29.0519 57.709 28.9246 57.6786C28.6355 57.402 28.3272 57.146 28.0021 56.9126C27.9261 56.744 27.817 56.5922 27.6812 56.4663L27.6277 56.3197C27.635 56.2787 27.6307 56.2364 27.6153 56.1976C27.6 56.1588 27.5742 56.125 27.5408 56.0999L27.5007 55.8934V55.3539L27.5609 55.0474C27.8684 54.5012 28.1759 53.9484 28.4366 53.3688C28.496 53.3131 28.5319 53.2369 28.5369 53.1557C28.6839 53.0691 28.724 52.9026 28.7976 52.7693C29.6131 51.3239 35.9903 41.2056 36.3913 40.6794L37.3272 39.4271C37.4342 39.5937 37.3606 39.7602 37.4876 39.8601V40.1732C37.4725 40.2067 37.4647 40.243 37.4647 40.2797C37.4647 40.3165 37.4725 40.3528 37.4876 40.3863C37.7149 42.3047 37.9667 44.2187 38.243 46.1282C38.5572 48.2997 38.9115 50.4579 39.2992 52.6228C39.283 52.6764 39.2807 52.7331 39.2924 52.7879C39.3041 52.8426 39.3294 52.8935 39.366 52.9359V53.149C39.3554 53.3749 39.3871 53.6008 39.4596 53.8151C39.5831 54.6608 39.7527 55.4991 39.9676 56.3264L40.0144 56.6328C40.0055 56.658 40.0052 56.6854 40.0137 56.7107C40.0222 56.7361 40.0389 56.7579 40.0612 56.7727L40.1615 57.1524ZM32.8485 52.6228C33.1689 52.2888 33.387 51.8705 33.4768 51.4171C34.1453 50.0849 34.7737 48.7527 35.4087 47.4205C35.6326 46.9997 35.8011 46.5519 35.91 46.0882C35.91 45.9883 36.0237 45.8684 35.8365 45.7152L33.4568 51.0974C33.1837 51.5615 32.9596 52.0526 32.7883 52.5628C32.7276 52.6226 32.6801 52.6943 32.649 52.7735C32.6179 52.8527 32.6039 52.9375 32.6078 53.0225C32.6764 52.9791 32.7339 52.9204 32.7756 52.851C32.8174 52.7816 32.8424 52.7035 32.8485 52.6228ZM36.0237 52.9359C36.0561 52.9076 36.0792 52.8702 36.09 52.8286C36.1007 52.787 36.0986 52.7431 36.0839 52.7027C36.1708 51.9367 36.2309 51.164 36.3512 50.4046C36.6195 48.6149 36.7202 46.8042 36.652 44.9958C36.652 44.8826 36.652 44.7627 36.5919 44.6761C36.4515 44.7094 36.4448 44.8026 36.4181 44.8826C36.2115 45.6285 36.1146 46.4004 36.1306 47.174C36.0504 48.7327 36.017 50.2981 35.9635 51.8368C35.9635 51.9101 35.9635 51.9767 35.9635 52.0433C35.9108 52.1436 35.8966 52.2596 35.9234 52.3697L35.8833 53.3222C35.7571 53.9804 35.7144 54.6518 35.7563 55.3205C35.8298 54.6544 36.0103 53.9883 36.0237 53.3222V52.9359Z" fill="url(#paint0_linear_50_109)"/>
<path d="M31.1773 29.0092C30.1746 28.4164 29.1719 27.8502 28.1826 27.2307C25.0809 25.3123 21.9926 23.314 18.8374 21.4622C18.5032 21.269 18.1689 21.0758 17.8147 20.9159C17.5309 20.7689 17.2096 20.7094 16.8917 20.745C16.5739 20.7806 16.2738 20.9097 16.0299 21.1158C15.6953 21.3741 15.4022 21.6819 15.1608 22.0284C13.7718 24.0043 12.857 26.272 12.487 28.6562C12.3218 29.662 12.2658 30.6825 12.3199 31.7003C12.3173 32.0698 12.4142 32.4333 12.6006 32.7527C12.7777 33.0188 13.0394 33.218 13.3436 33.3182C13.6479 33.4185 13.9771 33.414 14.2785 33.3056L16.3908 32.8327C19.9939 32.0134 23.6036 31.2074 27.2066 30.3747C28.6639 30.0417 30.1078 29.662 31.6519 29.2756L31.1773 29.0092ZM19.0647 25.9784H19.1984C19.1249 26.0783 19.0981 25.9784 19.0647 25.9784L18.931 25.9451C19.0112 25.8185 19.038 25.8985 19.0647 25.9784ZM26.4178 29.0625C25.9605 29.1738 25.4915 29.2297 25.0207 29.229C23.6838 29.309 22.4003 29.3689 21.0901 29.4355C20.9631 29.6087 20.7693 29.5488 20.6089 29.5488C19.6138 29.552 18.6201 29.621 17.6342 29.7552C17.4117 29.7725 17.1882 29.7725 16.9657 29.7552C16.8855 29.7552 16.8454 29.702 16.8454 29.622C16.6315 29.622 16.7184 29.4622 16.7184 29.3556C16.7184 29.0958 16.4911 28.8826 16.5312 28.5496C19.0513 28.7894 21.5714 28.7361 24.0916 28.8826H24.2119H25.0274C25.062 28.8508 25.1073 28.8331 25.1544 28.8331C25.2015 28.8331 25.2469 28.8508 25.2814 28.8826H25.4018L25.7226 28.7428C25.5595 28.5641 25.3445 28.4407 25.1076 28.3897L22.3669 27.3106C21.8133 27.1648 21.2759 26.964 20.7626 26.7111C20.3574 26.5681 19.9695 26.3804 19.6061 26.1516L19.4658 26.1116C19.546 26.0184 19.5727 26.1116 19.6061 26.1516C19.7607 26.1231 19.9201 26.1369 20.0674 26.1916C20.8361 26.6045 21.7051 26.7711 22.4605 27.204C23.2693 27.4505 24.0581 27.7369 24.8336 28.0567C25.3664 28.2328 25.8742 28.4769 26.3443 28.7827C26.4312 28.856 26.5382 28.9159 26.3978 29.0292L26.4178 29.0625Z" fill="#F59124"/>
<path d="M49.1925 60.0832C49.279 60.2946 49.3222 60.5211 49.3195 60.7494C48.8014 60.6697 48.3117 60.4612 47.8957 60.1432C47.2637 59.5747 46.6613 58.9744 46.0908 58.3447C45.1809 57.1815 44.3841 55.9347 43.7111 54.6211C42.4402 52.1774 41.477 49.5866 40.8434 46.9076C40.5178 45.5916 40.2745 44.2568 40.1147 42.9109C40.1653 42.3747 40.0992 41.834 39.9209 41.3255C39.7671 39.7761 39.6957 38.2197 39.707 36.6628C39.7072 35.0481 39.8099 33.4352 40.0145 31.8335C40.1621 30.4215 40.3852 29.0185 40.6829 27.6303C41.1751 25.4389 41.9128 23.3095 42.8822 21.2822C42.9236 21.1673 42.9898 21.0627 43.076 20.9758C43.0903 20.9758 43.1044 20.9723 43.117 20.9656C43.1297 20.9589 43.1404 20.9491 43.1483 20.9373C43.1563 20.9254 43.1612 20.9118 43.1625 20.8976C43.1639 20.8834 43.1618 20.8691 43.1562 20.8559C43.575 19.9666 44.1762 19.1747 44.921 18.5312C45.1539 18.3133 45.4575 18.1857 45.7766 18.1715H48.3636C48.5174 18.1715 48.6978 18.1715 48.7246 18.378C48.6711 18.4446 48.6176 18.5179 48.5642 18.5845C48.1251 19.0094 47.7206 19.4682 47.3542 19.9567C46.6333 21.1156 46.0245 22.34 45.536 23.6136C44.8274 25.4681 44.2555 27.3716 43.8247 29.3089C43.5079 30.8259 43.2846 32.3608 43.1562 33.9051V34.2781C42.9164 35.6207 42.7712 36.9785 42.7217 38.3414C42.6616 39.234 42.8688 40.1199 42.8287 41.0058C42.8255 41.0492 42.8323 41.0928 42.8485 41.1331C42.8647 41.1735 42.8899 41.2097 42.9223 41.239V41.965C42.9005 42.0047 42.894 42.0508 42.9038 42.0949C42.9137 42.139 42.9392 42.1781 42.9758 42.2048L43.0627 42.7111C43.0542 43.2061 43.1058 43.7004 43.2164 44.1832C43.2015 44.3405 43.2015 44.4988 43.2164 44.6561C43.4704 45.9883 43.7044 47.3206 43.9985 48.6128C44.4768 50.7502 45.2037 52.8247 46.1644 54.7943C46.7119 55.8672 47.3351 56.9001 48.0294 57.8851C48.1764 58.1049 48.3569 58.358 48.6978 58.3314C48.7981 58.5112 49.1323 59.8834 49.1925 60.0832Z" fill="#F8B265"/>
<path d="M33.2696 36.6361C31.3645 37.1223 29.446 37.582 27.5542 38.1415C27.0956 38.2425 26.6478 38.3875 26.2173 38.5745H26.1771C25.9139 38.5995 25.6553 38.66 25.4084 38.7543L18.6569 40.7127L18.316 40.8925C18.2825 41.0258 18.209 41.0324 18.1221 40.9458C18.0832 40.9369 18.0425 40.939 18.0046 40.952C17.9668 40.9649 17.9334 40.9882 17.9082 41.0191C17.848 41.1323 17.7478 41.1323 17.6408 41.1124H17.6007C17.2426 41.1449 16.8947 41.2491 16.578 41.4188H16.5445C16.5296 41.4469 16.5091 41.4718 16.4844 41.492C16.3906 41.52 16.2907 41.52 16.1969 41.492C16.1033 41.6452 15.9563 41.6186 15.8159 41.5986C15.4538 41.6208 15.1016 41.7254 14.7864 41.9043C14.4712 42.0833 14.2014 42.332 13.9977 42.6311L13.864 43.0507C13.8442 43.5783 13.871 44.1066 13.9442 44.6294C14.6622 47.4002 16.1716 49.9039 18.2892 51.8368C19.1181 52.6228 19.7799 52.6228 20.6556 51.8634C20.976 51.5886 21.2795 51.295 21.5647 50.9841C23.3362 49.0524 25.1477 47.1607 26.8657 45.1823C27.5007 44.4562 28.2026 43.7568 28.7641 42.9908C29.3256 42.2248 30.101 41.2656 30.7695 40.3996C31.2241 39.8068 31.692 39.2339 32.1064 38.6011C32.1094 38.5738 32.1216 38.5484 32.141 38.529C32.1605 38.5096 32.186 38.4974 32.2134 38.4945C32.7542 37.9364 33.2052 37.2983 33.5503 36.6028C33.4562 36.6083 33.3624 36.6194 33.2696 36.6361ZM19.9337 45.2556C19.9321 45.2894 19.9213 45.3221 19.9024 45.3503C19.8836 45.3785 19.8574 45.401 19.8267 45.4154C19.7866 45.4154 19.7064 45.4154 19.693 45.4154C19.6796 45.4154 19.693 45.3022 19.7665 45.2756C19.8136 45.2559 19.863 45.2424 19.9136 45.2356L19.9738 45.169C20.054 45.2356 19.9604 45.2356 19.9337 45.2556ZM30.8698 38.368C30.7186 38.4813 30.5894 38.6213 30.4888 38.781C30.4879 38.811 30.4768 38.8398 30.4574 38.8628C30.438 38.8858 30.4113 38.9015 30.3818 38.9075C30.3802 38.9216 30.3757 38.9351 30.3688 38.9475C30.3618 38.9598 30.3524 38.9706 30.3412 38.9793C30.33 38.9879 30.3172 38.9943 30.3035 38.998C30.2898 39.0017 30.2755 39.0026 30.2615 39.0008C30.0893 39.0591 29.9459 39.1806 29.8604 39.3405L28.0756 40.7327C27.6344 41.2256 27.0796 41.5853 26.6183 42.0649C26.6183 42.0649 26.5247 42.0649 26.4713 42.0649C26.4178 42.0649 26.4713 42.1981 26.4713 42.2647C26.4044 42.3021 26.3436 42.3493 26.2908 42.4046L26.244 42.4446H26.1972C26.1644 42.4646 26.1281 42.4782 26.0902 42.4845L25.8295 42.8576C25.8157 42.9078 25.7931 42.9551 25.7627 42.9975C25.2482 43.5274 24.706 44.0299 24.1383 44.5029C24.0778 44.5356 24.0123 44.5581 23.9445 44.5695C23.9445 44.9225 23.6771 45.0024 23.4164 45.0957L23.3094 45.2023L23.2025 45.3089L23.1557 45.3488L23.1958 45.3022L23.3027 45.1956L23.4097 45.089C23.4352 44.9589 23.499 44.8393 23.5931 44.7456C23.6872 44.6518 23.8072 44.5882 23.9378 44.5628C23.9393 44.4763 23.9726 44.3933 24.0314 44.3297L25.4351 42.9375C25.4351 42.9375 25.5287 42.8975 25.5755 42.8842C25.6734 42.6911 25.8334 42.5363 26.0301 42.4446C26.117 42.2447 26.2306 42.0716 26.4713 42.0449C26.5181 41.7851 26.752 41.6652 26.9125 41.492C27.2297 41.1495 27.5764 40.8352 27.9486 40.5528L28.7441 39.7801C28.704 39.6602 28.6037 39.6602 28.5101 39.6536L26.9058 40.6927C26.8937 40.7319 26.8686 40.7658 26.8346 40.7888C26.8005 40.8118 26.7596 40.8226 26.7186 40.8193C26.7042 40.8601 26.6768 40.8952 26.6407 40.9192C26.6045 40.9433 26.5615 40.9549 26.5181 40.9525C26.4012 41.0805 26.2604 41.1846 26.1036 41.2589C25.9193 41.4868 25.6923 41.6769 25.4351 41.8184C24.4057 42.5467 23.3451 43.2284 22.2532 43.8634C21.8588 44.0899 21.4912 44.363 21.1102 44.6094C20.8963 44.9092 20.5353 44.9492 20.181 45.2089C20.2337 45.0602 20.3222 44.9265 20.4387 44.8197C20.5553 44.7128 20.6963 44.6361 20.8495 44.5961L25.6892 41.0058C25.8088 40.9011 25.9541 40.8299 26.1103 40.7993L26.2908 40.686C26.302 40.6587 26.3216 40.6356 26.3468 40.62C26.3721 40.6045 26.4016 40.5973 26.4312 40.5995C26.4248 40.5709 26.4248 40.5414 26.4312 40.5129C26.4312 40.2131 26.6785 40.3064 26.8523 40.2864L27.0996 40.0999C27.9085 39.6469 28.7106 39.1873 29.5262 38.7676C29.8938 38.5678 30.2815 38.4013 30.6692 38.2348C30.7495 38.1681 30.9233 38.0949 30.8698 38.368Z" fill="#F59124"/>
<path d="M48.6912 58.3247C48.3502 58.3247 48.1698 58.1049 48.0227 57.8784C47.3284 56.8934 46.7052 55.8606 46.1577 54.7877C45.1985 52.8244 44.4716 50.7567 43.9918 48.6261C43.6977 47.2939 43.4638 45.9617 43.2097 44.6694C43.1948 44.5121 43.1948 44.3538 43.2097 44.1965C43.4963 43.8499 43.6502 43.4132 43.6442 42.9642L43.7311 42.8443C43.8047 42.8443 43.8916 42.8443 43.8983 42.7244C43.9049 42.6045 43.9718 42.418 44.0253 42.2714C44.5569 40.8634 45.3305 39.5583 46.3114 38.4147C46.5654 38.1149 46.5654 38.015 46.2112 37.8018C45.2275 37.1454 44.4546 36.2203 43.9852 35.1374C43.798 34.7644 43.5841 34.4047 43.3835 34.0316C43.3641 33.9832 43.3275 33.9436 43.2806 33.9203C43.2338 33.897 43.1801 33.8916 43.1295 33.9051C43.2579 32.3609 43.4812 30.8259 43.798 29.3089C44.2256 27.365 44.7953 25.4548 45.5026 23.5937C45.9911 22.3201 46.5999 21.0956 47.3208 19.9367C47.6872 19.4482 48.0917 18.9894 48.5307 18.5645C48.5909 18.4979 48.6377 18.4246 48.6912 18.358C48.6912 18.4047 48.7647 18.4579 48.758 18.4979C48.6043 19.164 48.758 19.7902 48.6043 20.4296C48.5967 20.4983 48.5967 20.5675 48.6043 20.6361C48.6043 21.3755 48.524 22.1082 48.4973 22.841C48.4505 24.1199 48.2834 25.3855 48.2032 26.6578C48.1698 27.1973 48.0829 27.7369 48.0628 28.2764C48.0294 29.169 47.8957 30.0483 47.8021 30.9409C47.7486 31.4471 47.6684 31.9467 47.655 32.453C47.655 33.4188 47.4411 34.3647 47.3609 35.3172C47.3208 35.8235 47.2272 36.3231 47.2072 36.8293C47.2072 37.4954 47.0935 38.1615 47.0334 38.8276C47.0334 38.8943 47.0334 38.9675 47.0334 39.0341C46.9732 40.9792 46.8462 42.9242 46.9398 44.8693C47.0133 46.3347 47.0467 47.8068 47.1671 49.2723C47.2606 50.438 47.3609 51.6037 47.5147 52.7694C47.755 54.5022 48.1351 56.213 48.6511 57.8851C48.6934 58.0276 48.707 58.177 48.6912 58.3247Z" fill="#FDD497"/>
<path d="M39.9208 41.3456C40.0968 41.8545 40.1607 42.3952 40.108 42.9309C39.9733 42.4135 39.9103 41.8801 39.9208 41.3456Z" fill="#FDD497"/>
<path d="M48.9117 59.1573C48.8902 59.1483 48.8709 59.1348 48.8551 59.1176C48.8394 59.1004 48.8276 59.08 48.8206 59.0578C48.8136 59.0356 48.8116 59.0121 48.8146 58.9891C48.8176 58.966 48.8257 58.9438 48.8382 58.9242C48.8697 58.9533 48.8931 58.9902 48.906 59.031C48.9189 59.0719 48.9209 59.1155 48.9117 59.1573Z" fill="#FDD497"/>
<path d="M32.0864 38.6344C32.0893 38.6071 32.1015 38.5817 32.121 38.5623C32.1405 38.5429 32.166 38.5307 32.1934 38.5278L32.0864 38.6344Z" fill="#F59124"/>
<path d="M43.1496 20.856C43.1551 20.8691 43.1572 20.8834 43.1558 20.8976C43.1545 20.9118 43.1496 20.9254 43.1416 20.9373C43.1337 20.9492 43.123 20.9589 43.1103 20.9656C43.0977 20.9723 43.0836 20.9759 43.0693 20.9759L43.1496 20.856Z" fill="#FDD497"/>
<path d="M67.2946 27.5037C65.6034 29.0491 63.8052 30.4746 62.1674 32.1199C63.6015 32.2361 65.041 32.2717 66.4791 32.2264C65.2889 32.5894 64.0702 32.8524 62.8359 33.0124C62.6953 33.1034 62.5284 33.1455 62.3613 33.1323C62.3335 33.1573 62.3005 33.1756 62.2646 33.186C62.2287 33.1964 62.1909 33.1986 62.1541 33.1923C62.0311 33.2844 61.88 33.3315 61.7263 33.3255C61.697 33.3532 61.6623 33.3746 61.6243 33.3884C61.5864 33.4021 61.546 33.4079 61.5057 33.4055C61.4896 33.4537 61.4873 33.5054 61.4991 33.5548C61.5109 33.6042 61.5364 33.6494 61.5725 33.6852C61.9134 34.1182 62.241 34.5578 62.5819 35.0174C62.7731 35.1394 62.926 35.3126 63.0231 35.517C62.8025 35.3971 62.5418 35.3438 62.4081 35.104C62.0204 34.8376 61.6126 34.5978 61.2516 34.3047C61.185 34.2262 61.1033 34.1619 61.0112 34.1155C60.9192 34.0692 60.8187 34.0418 60.7158 34.035C60.6128 34.0281 60.5096 34.042 60.4122 34.0758C60.3147 34.1095 60.2251 34.1624 60.1487 34.2314C60.0685 34.3114 60.0685 34.4446 59.9615 34.5045C59.9567 34.6284 59.9122 34.7475 59.8345 34.8443L58.8251 36.2564C58.9321 35.6502 59.019 35.1507 59.0992 34.6511C59.0992 34.4446 59.1527 34.2314 59.166 34.0249C59.1727 33.9902 59.172 33.9544 59.1639 33.9199C59.1559 33.8854 59.1406 33.853 59.1192 33.8247C59.0978 33.7965 59.0707 33.773 59.0396 33.7559C59.0085 33.7387 58.9741 33.7283 58.9387 33.7252H58.7315C57.7363 33.8574 56.729 33.8731 55.7301 33.7718L57.7355 32.9658V32.9325C57.7603 32.9117 57.7891 32.8962 57.8201 32.887C57.8512 32.8778 57.8838 32.8752 57.916 32.8792C57.9316 32.8716 57.9487 32.8676 57.9661 32.8676C57.9835 32.8676 58.0007 32.8716 58.0163 32.8792C58.17 32.726 58.404 32.6727 58.531 32.4862L58.3906 32.3597C58.207 32.2741 58.0432 32.1516 57.9093 32C57.8759 32 57.8224 32 57.8024 32C57.067 31.3627 56.3663 30.6867 55.7034 29.975C55.817 29.8284 55.9039 29.975 55.9841 29.975C57.0136 30.348 57.9294 30.9542 58.9254 31.3938C59.0658 31.4537 59.1861 31.5936 59.3599 31.4937C59.3599 31.3538 59.3198 31.194 59.4401 31.0741C59.6406 29.8817 59.9816 28.716 60.2423 27.537C60.2622 27.4868 60.2892 27.4397 60.3225 27.3971C60.3225 27.3372 60.4294 27.3971 60.3626 27.3971L60.396 30.5678V30.9808C60.4669 31.1815 60.492 31.3954 60.4695 31.607C60.4754 31.6069 60.4812 31.6081 60.4866 31.6105C60.492 31.6129 60.4967 31.6165 60.5006 31.6209C60.5044 31.6254 60.5072 31.6306 60.5088 31.6362C60.5103 31.6419 60.5106 31.6478 60.5096 31.6536L60.7302 31.6203L63.9255 29.522C63.9646 29.5242 64.0033 29.5137 64.0358 29.4921C64.0684 29.4705 64.093 29.4389 64.106 29.4021C64.4536 29.169 64.7745 28.9292 65.1555 28.736C65.6769 28.4096 66.1983 28.0699 66.693 27.7235C66.8668 27.597 67.0205 27.4038 67.2745 27.4238C67.2764 27.4514 67.2832 27.4785 67.2946 27.5037Z" fill="#FDC58B"/>
<path d="M71.9003 29.8684C71.7532 29.7152 71.6529 29.622 71.7465 29.4554C71.7849 29.4712 71.8196 29.4947 71.8485 29.5244C71.8773 29.5542 71.8997 29.5896 71.9141 29.6284C71.9285 29.6672 71.9348 29.7086 71.9324 29.7499C71.93 29.7912 71.9191 29.8315 71.9003 29.8684Z" fill="#EC7026"/>
<path d="M71.2787 28.4563L71.2386 28.5495C71.2386 28.6095 71.1651 28.6827 71.0982 28.6161C71.0314 28.5495 71.0982 28.5096 71.1651 28.4762L71.2587 28.4363L71.2787 28.4563Z" fill="#EC7026"/>
<path d="M62.6622 31.0074C62.6492 31.0442 62.6246 31.0758 62.592 31.0974C62.5595 31.1191 62.5207 31.1296 62.4817 31.1273C62.4971 31.0922 62.5223 31.0622 62.5543 31.041C62.5863 31.0197 62.6237 31.0081 62.6622 31.0074Z" fill="#FDD497"/>
<path d="M65.8441 29.0024V29.0091H65.8374L65.8441 29.0024Z" fill="#F8B265"/>
<path d="M35.8633 53.3689L35.9034 52.4164C35.948 52.3756 35.9765 52.3204 35.9839 52.2605C35.9912 52.2007 35.9769 52.1402 35.9435 52.09C35.9435 52.0234 35.9435 51.9501 35.9435 51.8835C35.997 50.3248 36.0304 48.7594 36.1106 47.2207C36.0946 46.4471 36.1914 45.6752 36.3981 44.9293C36.3981 44.8493 36.3981 44.7561 36.5719 44.7228C36.6521 44.8094 36.632 44.9359 36.632 45.0425C36.7002 46.8508 36.5995 48.6616 36.3312 50.4513C36.2176 51.2107 36.1507 51.9834 36.0638 52.7494C36.0321 52.7782 36.0096 52.8156 35.9989 52.8571C35.9882 52.8985 35.9898 52.9421 36.0037 52.9826V53.3889L35.8633 53.3689Z" fill="#FDD497"/>
<path d="M33.4634 51.144L35.8431 45.7618C36.0236 45.915 35.9367 46.035 35.9167 46.1349C35.8077 46.5986 35.6392 47.0463 35.4153 47.4671C34.7803 48.7993 34.1786 50.1315 33.4834 51.4638L33.4634 51.144Z" fill="#FDD497"/>
<path d="M35.8633 53.3689H36.0037C36.0037 54.035 35.8098 54.7011 35.7363 55.3672C35.6944 54.6984 35.7371 54.0271 35.8633 53.3689Z" fill="#F8B265"/>
<path d="M33.4634 51.144V51.4305C33.3749 51.8776 33.1618 52.2909 32.8484 52.6228C33.0019 52.1102 33.208 51.6146 33.4634 51.144Z" fill="#F8B265"/>
<path d="M32.8485 52.6228C32.8506 52.7069 32.8323 52.7902 32.795 52.8656C32.7578 52.941 32.7027 53.0063 32.6346 53.0558C32.6306 52.9709 32.6446 52.8861 32.6757 52.8069C32.7068 52.7277 32.7543 52.6559 32.815 52.5962L32.8485 52.6228Z" fill="#F8B265"/>
<path d="M35.9368 52.0833C35.9702 52.1335 35.9845 52.194 35.9772 52.2538C35.9698 52.3137 35.9413 52.3689 35.8967 52.4096C35.8698 52.2996 35.8841 52.1836 35.9368 52.0833Z" fill="#F8B265"/>
<path d="M36.0237 52.9492C36.0099 52.9087 36.0082 52.8651 36.0189 52.8237C36.0296 52.7823 36.0522 52.7449 36.0839 52.7161C36.0977 52.7565 36.0993 52.8002 36.0887 52.8416C36.078 52.883 36.0554 52.9204 36.0237 52.9492Z" fill="#F8B265"/>
<path d="M26.3978 29.0292C25.9405 29.1406 25.4714 29.1965 25.0007 29.1957C23.6638 29.2756 22.3803 29.3356 21.0701 29.4022C20.6824 29.4022 20.2947 29.4022 19.9137 29.4022L16.812 29.5754C16.812 29.4755 16.812 29.3689 16.685 29.3089C16.685 29.0491 16.4577 28.836 16.4978 28.5029C19.0179 28.7427 21.538 28.6894 24.0582 28.836C24.0983 28.8893 24.1384 28.8893 24.1785 28.836H24.994C25.0762 28.8649 25.1658 28.8649 25.248 28.836H25.4018H25.97C26.1237 28.9226 26.2908 28.8693 26.3978 29.0292Z" fill="#FDC58B"/>
<path d="M26.3978 29.0291C26.2908 28.8693 26.1237 28.9225 25.97 28.9159H25.4018L25.7226 28.776C25.5599 28.597 25.3447 28.4735 25.1077 28.423L22.3669 27.3106L22.4605 27.204C23.2694 27.4504 24.0582 27.7369 24.8336 28.0566C25.3665 28.2327 25.8743 28.4767 26.3443 28.7827C26.4312 28.8559 26.5382 28.9159 26.3978 29.0291Z" fill="#FDC58B"/>
<path d="M22.4606 27.2173L22.367 27.3239C21.8133 27.1783 21.2759 26.9774 20.7626 26.7244C20.3575 26.5813 19.9696 26.3936 19.6062 26.1649C19.7608 26.1371 19.92 26.1509 20.0674 26.2049C20.8295 26.6445 21.7052 26.7777 22.4606 27.2173Z" fill="#F8B265"/>
<path d="M16.8186 29.5887L19.9203 29.4155C20.308 29.4155 20.689 29.4155 21.0767 29.4155C20.9497 29.5887 20.7559 29.5288 20.5888 29.5288C19.5937 29.5322 18.6 29.6012 17.6141 29.7353C17.3916 29.7525 17.1681 29.7525 16.9456 29.7353C16.852 29.7219 16.8186 29.6686 16.8186 29.5887Z" fill="#FDC58B"/>
<path d="M16.6649 29.309C16.7652 29.3689 16.7719 29.4755 16.7919 29.5754C16.578 29.5621 16.6649 29.4089 16.6649 29.309Z" fill="#F8B265"/>
<path d="M25.2279 28.8759C25.1457 28.9049 25.0561 28.9049 24.9739 28.8759C25.0085 28.8441 25.0538 28.8264 25.1009 28.8264C25.148 28.8264 25.1933 28.8441 25.2279 28.8759Z" fill="#FDD497"/>
<path d="M19.0781 25.9784L18.9377 25.9384C19.018 25.8452 19.038 25.9384 19.0714 25.9784H19.0781Z" fill="#F8B265"/>
<path d="M19.0713 25.9784H19.2184C19.1381 26.085 19.1181 25.9784 19.078 25.9451L19.0713 25.9784Z" fill="#F8B265"/>
<path d="M19.6062 26.1582L19.4591 26.1182C19.5393 26.025 19.5661 26.1182 19.6062 26.1582Z" fill="#F8B265"/>
<path d="M24.1584 28.8293C24.1183 28.8826 24.0715 28.876 24.0381 28.8293H24.1584Z" fill="#FDD497"/>
<path d="M43.1295 33.8851C43.1801 33.8716 43.2338 33.877 43.2806 33.9003C43.3274 33.9236 43.3641 33.9633 43.3835 34.0117C43.5841 34.378 43.798 34.7444 43.9851 35.1174C44.4546 36.2003 45.2275 37.1254 46.2111 37.7819C46.5654 37.995 46.5654 38.0949 46.3114 38.3947C45.3305 39.5383 44.5569 40.8434 44.0253 42.2515C43.9718 42.398 43.9384 42.5512 43.8982 42.7044C43.8617 42.7059 43.8264 42.7181 43.7967 42.7394C43.7669 42.7607 43.7442 42.7902 43.7311 42.8243L43.6442 42.9442C43.4869 42.7952 43.2796 42.7098 43.0627 42.7044L42.9758 42.1982C42.9894 42.1571 42.9916 42.1131 42.9822 42.0709C42.9728 42.0287 42.9521 41.9898 42.9223 41.9584L42.8755 41.2456C43.0293 40.5999 43.2213 39.9637 43.4504 39.3406C43.6531 38.802 43.7528 38.2304 43.7445 37.6553C43.7419 37.2348 43.6994 36.8155 43.6175 36.403C43.5559 35.7779 43.4554 35.1572 43.3167 34.5445C43.2833 34.418 43.2632 34.3047 43.1228 34.2648L43.1295 33.8851Z" fill="#FFFEFE"/>
<path d="M43.1094 34.2648C43.2498 34.3047 43.2699 34.418 43.3033 34.5445C43.442 35.1572 43.5425 35.7779 43.6041 36.403C43.686 36.8155 43.7285 37.2348 43.7311 37.6553C43.7437 38.2296 43.6485 38.8011 43.4503 39.3405C43.226 39.9618 43.0385 40.5957 42.8888 41.239C42.8565 41.2097 42.8312 41.1735 42.815 41.1332C42.7988 41.0928 42.792 41.0492 42.7952 41.0058C42.8353 40.1132 42.6281 39.2206 42.6883 38.3414C42.7327 36.9744 42.8734 35.6121 43.1094 34.2648Z" fill="#FDD497"/>
<path d="M42.9223 41.9651C42.9521 41.9965 42.9728 42.0354 42.9822 42.0776C42.9917 42.1199 42.9894 42.1638 42.9758 42.2049C42.9393 42.1782 42.9137 42.1391 42.9039 42.095C42.894 42.0509 42.9006 42.0047 42.9223 41.9651Z" fill="#FDD497"/>
<path d="M30.8698 38.368C30.7185 38.4814 30.5894 38.6214 30.4887 38.781C30.4606 38.7897 30.4356 38.8062 30.4166 38.8287C30.3977 38.8511 30.3856 38.8785 30.3818 38.9076C30.3537 38.9055 30.3258 38.9139 30.3036 38.9311C30.2814 38.9484 30.2663 38.9732 30.2615 39.0008C30.0893 39.0592 29.9459 39.1806 29.8604 39.3406L28.0756 40.7327L27.9486 40.5928L28.744 39.7802C28.8295 39.7335 28.9037 39.6688 28.9615 39.5906C29.0192 39.5123 29.0591 39.4225 29.0783 39.3272C28.8547 39.3626 28.651 39.4759 28.5034 39.647L26.8991 40.6861C26.8581 40.6828 26.8172 40.6935 26.7831 40.7165C26.7491 40.7396 26.7239 40.7735 26.7119 40.8127C26.6116 40.8127 26.5314 40.8127 26.5114 40.9525C26.3945 41.0805 26.2537 41.1846 26.0969 41.259C25.8629 41.1191 26.0969 40.9525 26.0969 40.806L26.2774 40.6928C26.3073 40.6974 26.3379 40.6912 26.3636 40.6753C26.3894 40.6594 26.4086 40.6349 26.4178 40.6062C26.518 40.6062 26.5849 40.6062 26.6049 40.4729C26.625 40.3397 26.8322 40.4729 26.8456 40.2931L27.0929 40.1066C27.9018 39.6536 28.7039 39.194 29.5195 38.7744C29.8871 38.5745 30.2748 38.408 30.6625 38.2415C30.7494 38.1682 30.9232 38.0949 30.8698 38.368Z" fill="#FDC58B"/>
<path d="M26.0703 41.2589C25.8859 41.4868 25.6589 41.6769 25.4018 41.8184C24.3723 42.5467 23.3117 43.2284 22.2199 43.8634C21.8255 44.0899 21.4578 44.363 21.0768 44.6095H20.8027L25.6424 41.0191C25.7621 40.9145 25.9074 40.8432 26.0636 40.8126C26.0703 40.9525 25.8497 41.119 26.0703 41.2589Z" fill="#FDC58B"/>
<path d="M25.8297 42.9043C25.8159 42.9545 25.7932 43.0019 25.7628 43.0442C25.2483 43.5741 24.7061 44.0766 24.1384 44.5496C24.078 44.5823 24.0125 44.6048 23.9446 44.6162C23.946 44.5297 23.9794 44.4467 24.0382 44.3831L25.4419 42.9909C25.4419 42.9909 25.5355 42.9509 25.5823 42.9376L25.8297 42.9043Z" fill="#F59124"/>
<path d="M28.0756 40.7327C27.6344 41.2257 27.0796 41.5854 26.6184 42.065C26.6184 42.065 26.5248 42.065 26.4713 42.065C26.5181 41.8052 26.7521 41.6853 26.9125 41.5121C27.2297 41.1695 27.5764 40.8552 27.9486 40.5729L28.0756 40.7327Z" fill="#FDC58B"/>
<path d="M20.796 44.6295H21.07C20.8561 44.9293 20.4952 44.9692 20.1409 45.229C20.1941 45.0842 20.2814 44.9543 20.3953 44.85C20.5093 44.7457 20.6467 44.6701 20.796 44.6295Z" fill="#F8B265"/>
<path d="M23.3964 45.1357C23.4218 45.0056 23.4857 44.886 23.5798 44.7923C23.6739 44.6985 23.7939 44.6349 23.9245 44.6095C23.9245 44.9625 23.6571 45.0425 23.3964 45.1357Z" fill="#F59124"/>
<path d="M29.0582 39.3005C29.039 39.3958 28.9991 39.4856 28.9414 39.5639C28.8836 39.6421 28.8094 39.7068 28.724 39.7535C28.6838 39.6336 28.5836 39.6336 28.49 39.6269C28.6348 39.4548 28.8361 39.3392 29.0582 39.3005Z" fill="#F8B265"/>
<path d="M26.4781 42.0782C26.4781 42.1449 26.4781 42.2115 26.4781 42.2781C26.4112 42.3155 26.3504 42.3626 26.2976 42.418L26.2508 42.4579H26.204C26.171 42.4775 26.1348 42.4911 26.097 42.4979L26.0369 42.4446C26.1171 42.2781 26.2307 42.1049 26.4781 42.0782Z" fill="#F8B265"/>
<path d="M26.0701 42.5312L25.8094 42.9042H25.5554C25.6533 42.7111 25.8133 42.5563 26.01 42.4646L26.0701 42.5312Z" fill="#FDC58B"/>
<path d="M26.7988 40.2864C26.7988 40.4329 26.605 40.3663 26.5582 40.4662L26.3777 40.5129C26.3977 40.2131 26.6317 40.3064 26.7988 40.2864Z" fill="#F59124"/>
<path d="M19.9338 45.2556C19.9322 45.2894 19.9214 45.3221 19.9025 45.3503C19.8837 45.3785 19.8575 45.401 19.8268 45.4154C19.7867 45.4154 19.7065 45.4154 19.6864 45.4154C19.6664 45.4154 19.6864 45.3022 19.7666 45.2756C19.8137 45.2559 19.8631 45.2424 19.9137 45.2356L19.9338 45.2556Z" fill="#F8B265"/>
<path d="M16.1235 41.532C16.0299 41.6852 15.8828 41.6586 15.7424 41.6386C15.8508 41.5552 15.9874 41.517 16.1235 41.532Z" fill="#F59124"/>
<path d="M16.5378 41.4122C16.5228 41.4404 16.5024 41.4653 16.4776 41.4855C16.3839 41.5134 16.2839 41.5134 16.1902 41.4855C16.2416 41.4398 16.3021 41.4055 16.3678 41.3849C16.4335 41.3642 16.5028 41.3576 16.5712 41.3656L16.5378 41.4122Z" fill="#F59124"/>
<path d="M26.5581 40.4663C26.5581 40.5729 26.4712 40.6062 26.371 40.5995C26.3646 40.571 26.3646 40.5415 26.371 40.5129L26.5581 40.4663Z" fill="#FDD497"/>
<path d="M26.8857 40.6927C26.8736 40.7319 26.8485 40.7658 26.8144 40.7889C26.7804 40.8119 26.7395 40.8226 26.6985 40.8193C26.7105 40.7801 26.7357 40.7462 26.7697 40.7232C26.8037 40.7002 26.8447 40.6894 26.8857 40.6927Z" fill="#FDD497"/>
<path d="M26.6919 40.8194C26.6775 40.8602 26.6501 40.8953 26.6139 40.9193C26.5778 40.9434 26.5347 40.955 26.4913 40.9526C26.4913 40.8393 26.5849 40.806 26.6919 40.8127V40.8194Z" fill="#FDD497"/>
<path d="M18.3228 40.8993C18.2893 41.0325 18.2158 41.0392 18.1289 40.9526L18.3228 40.8993Z" fill="#F59124"/>
<path d="M17.9083 41.0192C17.8481 41.1324 17.7478 41.1324 17.6409 41.1124C17.675 41.0771 17.717 41.0503 17.7634 41.0341C17.8099 41.0179 17.8595 41.0128 17.9083 41.0192Z" fill="#F59124"/>
<path d="M19.9136 45.2357L19.9737 45.1691C20.0406 45.2357 19.9737 45.2357 19.9336 45.2557L19.9136 45.2357Z" fill="#F8B265"/>
<path d="M30.3818 38.9076C30.3856 38.8785 30.3977 38.8511 30.4167 38.8287C30.4357 38.8062 30.4607 38.7897 30.4888 38.781C30.4879 38.811 30.4768 38.8399 30.4574 38.8628C30.438 38.8858 30.4114 38.9016 30.3818 38.9076Z" fill="#F59124"/>
<path d="M30.2615 39.0008C30.2664 38.9732 30.2814 38.9483 30.3036 38.9311C30.3259 38.9138 30.3537 38.9055 30.3818 38.9075C30.3801 38.9216 30.3757 38.9352 30.3687 38.9475C30.3618 38.9598 30.3524 38.9706 30.3412 38.9793C30.33 38.988 30.3172 38.9943 30.3035 38.998C30.2898 39.0017 30.2755 39.0027 30.2615 39.0008Z" fill="#F59124"/>
<path d="M26.3711 40.6328C26.3619 40.6616 26.3427 40.6861 26.3169 40.702C26.2912 40.7178 26.2606 40.724 26.2307 40.7194C26.2419 40.6921 26.2616 40.6689 26.2868 40.6534C26.312 40.6378 26.3415 40.6306 26.3711 40.6328Z" fill="#FDD497"/>
<path d="M23.2026 45.3555L23.1558 45.3955L23.1959 45.3489L23.2026 45.3555Z" fill="#F59124"/>
<path d="M43.7312 42.8244C43.7442 42.7903 43.767 42.7608 43.7967 42.7395C43.8264 42.7181 43.8617 42.706 43.8983 42.7045C43.8916 42.811 43.8047 42.8044 43.7312 42.8244Z" fill="#EFE7DD"/>
<path d="M29.6732 14.2281C29.9941 14.3614 30.0208 14.6744 30.1278 14.9475L30.0476 15.0142C29.831 14.814 29.6895 14.5461 29.6465 14.2548L29.6732 14.2281Z" fill="#F8B265"/>
<path d="M29.6398 14.2548L29.5663 14.1482L29.6198 14.1083L29.6666 14.2348L29.6398 14.2548Z" fill="#F8B265"/>
<path d="M35.1213 20.7294C34.1676 17.5187 33.205 14.3125 32.2335 11.1107C32.151 10.8244 32.0436 10.5458 31.9127 10.2781C31.8211 10.0737 31.6704 9.90109 31.4799 9.78244C31.2894 9.66379 31.0677 9.60443 30.8431 9.61197C30.5263 9.62686 30.2133 9.68744 29.914 9.79182C27.3927 10.5143 25.0941 11.8565 23.2293 13.6952C22.9003 13.9863 22.6204 14.3281 22.4004 14.7077C22.1597 15.1673 22.1865 15.3738 22.5809 15.7202C22.9753 16.0666 23.4165 16.3863 23.851 16.746C25.6358 18.0782 27.4674 19.3705 29.1987 20.7427C31.0504 22.2281 36.4716 26.1782 36.8727 26.2648C36.5919 25.5653 35.4288 21.7019 35.1213 20.7294ZM34.8339 23.2806C34.7603 23.3472 34.7002 23.2806 34.64 23.2806H34.6066L34.4595 23.1673L34.3125 23.0541L34.025 22.8143C33.7078 22.5431 33.4065 22.254 33.1226 21.9484C32.2803 21.0158 31.418 20.1898 30.549 19.3172C30.4554 19.224 30.3551 19.1374 30.2682 19.0374L30.2281 18.9842L30.188 18.9242L29.9273 18.6511L29.8204 18.5778L29.4126 18.1782C29.4126 18.1782 29.3591 18.1182 29.3658 18.1115C29.3725 18.1049 29.4327 18.1115 29.4661 18.1115C29.5666 18.1382 29.6589 18.1892 29.7347 18.2601C29.8106 18.331 29.8676 18.4196 29.9006 18.5179C29.9393 18.5238 29.9759 18.539 30.0074 18.5622C30.0388 18.5854 30.0641 18.6159 30.0811 18.6511C30.1479 18.7177 30.2281 18.7843 30.1747 18.8909H30.3217H30.3618L30.4019 18.9242L30.4755 19.0041L30.5089 19.0441C31.2643 19.7102 32.0129 20.3763 32.7616 21.0424C32.9294 21.1911 33.1133 21.3206 33.3098 21.4288L33.5103 21.5354C33.6641 21.3489 33.5103 21.229 33.4368 21.1091C32.9555 20.2831 32.4675 19.4638 31.9929 18.6378C31.7077 18.1404 31.4292 17.6408 31.1573 17.139C30.9678 16.9465 30.8439 16.6995 30.803 16.4329C30.5864 16.2327 30.4449 15.9648 30.4019 15.6736L30.3284 15.567L30.3819 15.527L30.4287 15.6536C30.7495 15.7868 30.7763 16.0999 30.8832 16.373C31.1573 16.4663 31.164 16.726 31.2576 16.9392C32.2269 18.6245 33.263 20.2697 34.2924 21.9284C34.5305 22.2567 34.703 22.6276 34.8005 23.0208C34.8354 23.0537 34.8574 23.098 34.8623 23.1457C34.8672 23.1934 34.8547 23.2413 34.8272 23.2806H34.8339Z" fill="#F59124"/>
<path d="M34.8271 23.2806C34.7536 23.3472 34.6935 23.2806 34.6333 23.2806H34.5999L34.4528 23.1673L34.3057 23.0541L34.0183 22.8143C33.7011 22.5431 33.3998 22.254 33.1159 21.9483C32.2803 21.0158 31.418 20.1898 30.549 19.3172C30.4554 19.2239 30.3551 19.1373 30.2682 19.0374L30.2281 18.9841L30.188 18.9242H30.3284H30.3685L30.4086 18.9575L30.4821 19.0374L30.5155 19.0774C31.2709 19.7435 32.0196 20.4096 32.7683 21.0757C32.936 21.2244 33.1199 21.3539 33.3164 21.4621L33.517 21.5687C33.6707 21.3821 33.517 21.2622 33.4434 21.1423C32.9621 20.3164 32.4741 19.497 31.9995 18.6711C31.7143 18.1737 31.4358 17.6741 31.1639 17.1723C31.1639 17.099 31.1639 17.0058 31.2575 16.9658C32.2268 18.6511 33.2629 20.2964 34.2924 21.955C34.5305 22.2833 34.703 22.6542 34.8004 23.0474C34.829 23.0785 34.8469 23.1178 34.8517 23.1597C34.8565 23.2015 34.8479 23.2439 34.8271 23.2806Z" fill="#FDC58B"/>
<path d="M31.3243 16.9992C31.2308 17.0391 31.2441 17.1257 31.2308 17.2057C31.0416 17.0129 30.9178 16.766 30.8765 16.4996L30.9567 16.433C31.2308 16.5262 31.2374 16.7927 31.3243 16.9992Z" fill="#F8B265"/>
<path d="M29.8204 18.6111L29.4126 18.1782L29.4661 18.1249C29.5666 18.1515 29.6589 18.2025 29.7347 18.2735C29.8106 18.3444 29.8676 18.4329 29.9006 18.5312L29.8204 18.6111Z" fill="#F8B265"/>
<path d="M30.081 18.6511C30.1478 18.7244 30.2347 18.7843 30.1746 18.9042L29.9272 18.6511H30.081Z" fill="#EFE7DD"/>
<path d="M30.081 18.6512H29.9473L29.8403 18.5779L29.9005 18.5046C29.9408 18.5112 29.9787 18.5282 30.0103 18.554C30.042 18.5797 30.0664 18.6132 30.081 18.6512Z" fill="#F8B265"/>
<path d="M29.4126 18.1782C29.4126 18.1782 29.3591 18.1183 29.3658 18.1116C29.3725 18.1049 29.4327 18.1116 29.4661 18.1116L29.4126 18.1782Z" fill="#F8B265"/>
<path d="M40.0278 12.2431C40.0278 12.1432 40.0278 12.0299 39.9409 11.95C39.9684 11.3794 40.0513 10.8128 40.1883 10.2581C40.2318 10.924 40.1778 11.5927 40.0278 12.2431Z" fill="#F8B265"/>
<path d="M40.3688 22.1816C40.2819 21.8818 40.2083 21.6753 40.1549 21.4622C39.707 19.7636 39.0987 18.1316 38.5706 16.4463C37.9021 14.3348 37.3273 12.2032 36.7056 10.085C36.5853 9.66533 36.4716 9.23902 36.3446 8.81937C36.278 8.58289 36.2421 8.33889 36.2376 8.09331C36.2214 7.86199 36.2767 7.63128 36.3963 7.43233C36.5158 7.23339 36.6938 7.07581 36.9061 6.9809C37.1578 6.85481 37.4254 6.76296 37.7016 6.7078C40.0068 6.14645 42.4207 6.20853 44.6938 6.88765C45.0523 6.97755 45.3934 7.12611 45.7031 7.32728C45.9316 7.45297 46.1027 7.66142 46.1812 7.90944C46.2596 8.15747 46.2392 8.42604 46.1243 8.6595C46.0574 8.83935 45.9705 9.01254 45.8836 9.18573C45.2152 10.518 44.7606 11.9834 44.159 13.3689C43.0627 15.9135 42.0934 18.5113 40.9437 21.0359C40.7765 21.3889 40.576 21.7486 40.3688 22.1816ZM41.1509 13.0758C41.1082 13.1173 41.0785 13.1702 41.0655 13.2281C41.0524 13.2861 41.0565 13.3466 41.0774 13.4022C40.937 14.4147 40.7431 15.4006 40.6629 16.4996C41.0628 15.4343 41.2688 14.3065 41.2712 13.1691C41.4225 12.5144 41.4765 11.8411 41.4316 11.1707C41.2946 11.7254 41.2118 12.2921 41.1843 12.8627L41.1509 13.0758ZM39.8875 12.5829L40.3086 16.02C40.3509 14.8589 40.2065 13.6985 39.8808 12.5829H39.8875Z" fill="#F59124"/>
<path d="M41.2646 13.189C41.2621 14.3264 41.0561 15.4542 40.6562 16.5196C40.7365 15.4471 40.9303 14.4346 41.0707 13.4221C41.1086 13.3777 41.1351 13.3248 41.1479 13.268C41.1607 13.2111 41.1594 13.152 41.1442 13.0957V12.9159C41.2779 12.9758 41.2378 13.0957 41.2646 13.189Z" fill="#FDD497"/>
<path d="M39.8807 12.5829C40.2042 13.6989 40.3463 14.8593 40.3019 16.02L39.8807 12.5829Z" fill="#F8B265"/>
<path d="M41.1509 13.0824C41.1661 13.1387 41.1673 13.1978 41.1545 13.2546C41.1417 13.3115 41.1152 13.3644 41.0773 13.4088C41.0565 13.3531 41.0524 13.2927 41.0655 13.2347C41.0785 13.1768 41.1082 13.1238 41.1509 13.0824Z" fill="#F8B265"/>
<path d="M57.027 19.4504C52.4814 20.9092 49.3196 30.6411 48.484 40.5129C47.5414 51.6636 49.4466 62.9542 53.2702 62.4946C51.9333 50.4979 52.214 26.3514 57.027 19.4504Z" fill="#DC5626"/>
<path d="M43.8314 3.99664C39.6947 3.12363 35.4202 3.12631 31.2847 4.00449C27.1492 4.88267 23.245 6.61677 19.8249 9.09445C16.4049 11.5721 13.5453 14.7381 11.4315 18.3873C9.31769 22.0365 7.99678 26.0874 7.55433 30.2778C7.11188 34.4681 7.55777 38.7043 8.86311 42.712C10.1685 46.7196 12.3041 50.4094 15.1318 53.5421C17.9594 56.6748 21.416 59.1806 25.2775 60.8973C29.139 62.6139 33.3194 63.503 37.5478 63.507H37.8352H37.7416C33.3802 64.2335 28.9151 64.0539 24.6266 62.9793C20.3381 61.9047 16.3189 59.9584 12.821 57.2626C9.32316 54.5668 6.42226 51.1796 4.30038 47.3137C2.17849 43.4477 0.881423 39.1865 0.490575 34.7973C0.0997262 30.4082 0.623536 25.9859 2.02913 21.808C3.43472 17.6302 5.69176 13.7869 8.65858 10.5195C11.6254 7.25202 15.238 4.63093 19.2695 2.82068C23.3011 1.01042 27.6647 0.0500995 32.0864 -2.96703e-05C37.1709 -0.0122322 42.185 1.18436 46.7124 3.49039C48.1831 4.2431 46.3715 4.51621 43.8314 3.99664Z" fill="url(#paint1_linear_50_109)"/>
<path d="M43.564 3.99666C39.4829 3.32396 35.3062 3.502 31.2976 4.51953C27.2891 5.53707 23.5359 7.37198 20.2752 9.90834C17.0145 12.4447 14.3171 15.6274 12.3535 19.2553C10.3898 22.8832 9.20264 26.8776 8.86687 30.9859C8.5311 35.0943 9.05407 39.2274 10.4027 43.1241C11.7514 47.0209 13.8964 50.5965 16.7023 53.6252C19.5082 56.6539 22.914 59.0698 26.7045 60.7202C30.4949 62.3707 34.5877 63.2198 38.7243 63.214C39.2501 63.214 39.7715 63.2007 40.2885 63.174C39.366 63.3294 38.4302 63.4449 37.4809 63.5204C36.6609 63.5826 35.8343 63.6136 35.0009 63.6136C30.4089 63.6056 25.875 62.589 21.7221 60.6362C17.5692 58.6834 13.8993 55.8424 10.9736 52.3155C8.04799 48.7885 5.9385 44.6622 4.79531 40.2304C3.65212 35.7986 3.50335 31.1701 4.35957 26.6745C5.21579 22.1788 7.05597 17.9265 9.74911 14.2202C12.4423 10.5139 15.9222 7.4447 19.9412 5.23108C23.9601 3.01745 28.4194 1.71381 33.0015 1.41295C37.5837 1.11209 42.176 1.82141 46.4518 3.49042C49.2125 4.57618 46.1242 4.51623 43.564 3.99666Z" fill="#EC7026"/>
<path d="M116.073 20.2457H118.809L129.249 45.8057H125.793L122.769 38.3177H112.041L109.053 45.8057H105.597L116.073 20.2457ZM122.049 35.7977L117.441 23.9897L112.689 35.7977H122.049ZM132.66 45.8057V20.2457H135.9V45.8057H132.66ZM168.459 23.1257H159.639V45.8057H156.399V23.1257H147.579V20.2457H168.459V23.1257ZM166.469 40.3697C166.469 39.1697 166.805 38.1377 167.477 37.2737C168.173 36.3857 169.121 35.7017 170.321 35.2217C171.521 34.7417 172.913 34.5017 174.497 34.5017C175.337 34.5017 176.225 34.5737 177.161 34.7177C178.097 34.8377 178.925 35.0297 179.645 35.2937V33.9257C179.645 32.4857 179.213 31.3577 178.349 30.5417C177.485 29.7017 176.261 29.2817 174.677 29.2817C173.645 29.2817 172.649 29.4737 171.689 29.8577C170.753 30.2177 169.757 30.7457 168.701 31.4417L167.549 29.2097C168.773 28.3697 169.997 27.7457 171.221 27.3377C172.445 26.9057 173.717 26.6897 175.037 26.6897C177.437 26.6897 179.333 27.3617 180.725 28.7057C182.117 30.0257 182.813 31.8737 182.813 34.2497V42.2057C182.813 42.5897 182.885 42.8777 183.029 43.0697C183.197 43.2377 183.461 43.3337 183.821 43.3577V45.8057C183.509 45.8537 183.233 45.8897 182.993 45.9137C182.777 45.9377 182.597 45.9497 182.453 45.9497C181.709 45.9497 181.145 45.7457 180.761 45.3377C180.401 44.9297 180.197 44.4977 180.149 44.0417L180.077 42.8537C179.261 43.9097 178.193 44.7257 176.873 45.3017C175.553 45.8777 174.245 46.1657 172.949 46.1657C171.701 46.1657 170.585 45.9137 169.601 45.4097C168.617 44.8817 167.849 44.1857 167.297 43.3217C166.745 42.4337 166.469 41.4497 166.469 40.3697ZM178.709 41.7017C178.997 41.3657 179.225 41.0297 179.393 40.6937C179.561 40.3337 179.645 40.0337 179.645 39.7937V37.4537C178.901 37.1657 178.121 36.9497 177.305 36.8057C176.489 36.6377 175.685 36.5537 174.893 36.5537C173.285 36.5537 171.977 36.8777 170.969 37.5257C169.985 38.1497 169.493 39.0137 169.493 40.1177C169.493 40.7177 169.649 41.3057 169.961 41.8817C170.297 42.4337 170.777 42.8897 171.401 43.2497C172.049 43.6097 172.841 43.7897 173.777 43.7897C174.761 43.7897 175.697 43.5977 176.585 43.2137C177.473 42.8057 178.181 42.3017 178.709 41.7017ZM194.323 46.1657C192.763 46.1657 191.299 45.9137 189.931 45.4097C188.563 44.8817 187.387 44.1017 186.403 43.0697L187.627 40.8377C188.707 41.8457 189.787 42.5657 190.867 42.9977C191.947 43.4297 193.051 43.6457 194.179 43.6457C195.475 43.6457 196.531 43.4057 197.347 42.9257C198.163 42.4217 198.571 41.6897 198.571 40.7297C198.571 40.0337 198.355 39.5177 197.923 39.1817C197.515 38.8457 196.927 38.5697 196.159 38.3537C195.391 38.1137 194.479 37.8497 193.423 37.5617C192.127 37.1777 191.035 36.7697 190.147 36.3377C189.259 35.9057 188.587 35.3657 188.131 34.7177C187.675 34.0697 187.447 33.2537 187.447 32.2697C187.447 31.0697 187.759 30.0617 188.383 29.2457C189.007 28.4057 189.859 27.7697 190.939 27.3377C192.043 26.9057 193.291 26.6897 194.683 26.6897C196.075 26.6897 197.335 26.9057 198.463 27.3377C199.591 27.7697 200.563 28.4057 201.379 29.2457L199.939 31.4417C199.195 30.6737 198.379 30.1097 197.491 29.7497C196.603 29.3657 195.607 29.1737 194.503 29.1737C193.855 29.1737 193.219 29.2577 192.595 29.4257C191.971 29.5697 191.455 29.8457 191.047 30.2537C190.639 30.6377 190.435 31.1897 190.435 31.9097C190.435 32.5097 190.591 32.9897 190.903 33.3497C191.239 33.6857 191.719 33.9737 192.343 34.2137C192.991 34.4537 193.771 34.7177 194.683 35.0057C196.099 35.4137 197.323 35.8217 198.355 36.2297C199.411 36.6377 200.227 37.1657 200.803 37.8137C201.379 38.4617 201.667 39.3617 201.667 40.5137C201.667 42.2897 200.995 43.6817 199.651 44.6897C198.307 45.6737 196.531 46.1657 194.323 46.1657ZM218.705 45.8057L212.189 36.6617L208.625 40.0097V45.8057H205.457V19.5257H208.625V36.6977L218.345 27.0497H221.765L214.277 34.8257L222.125 45.8057H218.705ZM244.987 39.2177C244.987 40.5377 244.651 41.6897 243.979 42.6737C243.307 43.6577 242.395 44.4257 241.243 44.9777C240.115 45.5297 238.867 45.8057 237.499 45.8057H225.367V20.2457H238.075C239.275 20.2457 240.307 20.5697 241.171 21.2177C242.059 21.8417 242.731 22.6577 243.187 23.6657C243.667 24.6497 243.907 25.6817 243.907 26.7617C243.907 28.0097 243.583 29.1857 242.935 30.2897C242.311 31.3697 241.411 32.1737 240.235 32.7017C241.699 33.1337 242.851 33.9377 243.691 35.1137C244.555 36.2657 244.987 37.6337 244.987 39.2177ZM241.711 38.6417C241.711 37.8497 241.531 37.1177 241.171 36.4457C240.835 35.7737 240.367 35.2337 239.767 34.8257C239.191 34.4177 238.519 34.2137 237.751 34.2137H228.607V42.9977H237.499C238.291 42.9977 238.999 42.7937 239.623 42.3857C240.271 41.9777 240.775 41.4497 241.135 40.8017C241.519 40.1297 241.711 39.4097 241.711 38.6417ZM228.607 23.0537V31.5857H236.743C237.511 31.5857 238.183 31.3937 238.759 31.0097C239.359 30.6257 239.827 30.1097 240.163 29.4617C240.523 28.8137 240.703 28.1057 240.703 27.3377C240.703 26.5217 240.535 25.8017 240.199 25.1777C239.887 24.5297 239.443 24.0137 238.867 23.6297C238.315 23.2457 237.679 23.0537 236.959 23.0537H228.607ZM257.223 46.1657C255.807 46.1657 254.523 45.9137 253.371 45.4097C252.219 44.8817 251.223 44.1737 250.383 43.2857C249.543 42.3737 248.895 41.3297 248.439 40.1537C247.983 38.9777 247.755 37.7417 247.755 36.4457C247.755 35.1257 247.983 33.8777 248.439 32.7017C248.895 31.5257 249.543 30.4937 250.383 29.6057C251.223 28.6937 252.219 27.9857 253.371 27.4817C254.547 26.9537 255.831 26.6897 257.223 26.6897C258.639 26.6897 259.923 26.9537 261.075 27.4817C262.227 27.9857 263.223 28.6937 264.063 29.6057C264.927 30.4937 265.587 31.5257 266.043 32.7017C266.499 33.8777 266.727 35.1257 266.727 36.4457C266.727 37.7417 266.499 38.9777 266.043 40.1537C265.587 41.3297 264.939 42.3737 264.099 43.2857C263.259 44.1737 262.251 44.8817 261.075 45.4097C259.923 45.9137 258.639 46.1657 257.223 46.1657ZM250.995 36.4817C250.995 37.7777 251.271 38.9537 251.823 40.0097C252.399 41.0657 253.155 41.9057 254.091 42.5297C255.027 43.1297 256.071 43.4297 257.223 43.4297C258.375 43.4297 259.419 43.1177 260.355 42.4937C261.315 41.8697 262.071 41.0297 262.623 39.9737C263.199 38.8937 263.487 37.7057 263.487 36.4097C263.487 35.1137 263.199 33.9377 262.623 32.8817C262.071 31.8257 261.315 30.9857 260.355 30.3617C259.419 29.7377 258.375 29.4257 257.223 29.4257C256.071 29.4257 255.027 29.7497 254.091 30.3977C253.155 31.0217 252.399 31.8617 251.823 32.9177C251.271 33.9737 250.995 35.1617 250.995 36.4817ZM269.09 40.3697C269.09 39.1697 269.426 38.1377 270.098 37.2737C270.794 36.3857 271.742 35.7017 272.942 35.2217C274.142 34.7417 275.534 34.5017 277.118 34.5017C277.958 34.5017 278.846 34.5737 279.782 34.7177C280.718 34.8377 281.546 35.0297 282.266 35.2937V33.9257C282.266 32.4857 281.834 31.3577 280.97 30.5417C280.106 29.7017 278.882 29.2817 277.298 29.2817C276.266 29.2817 275.27 29.4737 274.31 29.8577C273.374 30.2177 272.378 30.7457 271.322 31.4417L270.17 29.2097C271.394 28.3697 272.618 27.7457 273.842 27.3377C275.066 26.9057 276.338 26.6897 277.658 26.6897C280.058 26.6897 281.954 27.3617 283.346 28.7057C284.738 30.0257 285.434 31.8737 285.434 34.2497V42.2057C285.434 42.5897 285.506 42.8777 285.65 43.0697C285.818 43.2377 286.082 43.3337 286.442 43.3577V45.8057C286.13 45.8537 285.854 45.8897 285.614 45.9137C285.398 45.9377 285.218 45.9497 285.074 45.9497C284.33 45.9497 283.766 45.7457 283.382 45.3377C283.022 44.9297 282.818 44.4977 282.77 44.0417L282.698 42.8537C281.882 43.9097 280.814 44.7257 279.494 45.3017C278.174 45.8777 276.866 46.1657 275.57 46.1657C274.322 46.1657 273.206 45.9137 272.222 45.4097C271.238 44.8817 270.47 44.1857 269.918 43.3217C269.366 42.4337 269.09 41.4497 269.09 40.3697ZM281.33 41.7017C281.618 41.3657 281.846 41.0297 282.014 40.6937C282.182 40.3337 282.266 40.0337 282.266 39.7937V37.4537C281.522 37.1657 280.742 36.9497 279.926 36.8057C279.11 36.6377 278.306 36.5537 277.514 36.5537C275.906 36.5537 274.598 36.8777 273.59 37.5257C272.606 38.1497 272.114 39.0137 272.114 40.1177C272.114 40.7177 272.27 41.3057 272.582 41.8817C272.918 42.4337 273.398 42.8897 274.022 43.2497C274.67 43.6097 275.462 43.7897 276.398 43.7897C277.382 43.7897 278.318 43.5977 279.206 43.2137C280.094 42.8057 280.802 42.3017 281.33 41.7017ZM300.436 29.7857C298.852 29.8097 297.448 30.2177 296.224 31.0097C295.024 31.7777 294.172 32.8457 293.668 34.2137V45.8057H290.5V27.0137H293.452V31.3697C294.1 30.0737 294.952 29.0297 296.008 28.2377C297.088 27.4217 298.216 26.9657 299.392 26.8697C299.632 26.8697 299.836 26.8697 300.004 26.8697C300.172 26.8697 300.316 26.8817 300.436 26.9057V29.7857ZM302.002 36.4457C302.002 34.6697 302.362 33.0497 303.082 31.5857C303.826 30.0977 304.834 28.9097 306.106 28.0217C307.402 27.1337 308.878 26.6897 310.534 26.6897C312.046 26.6897 313.402 27.0857 314.602 27.8777C315.802 28.6697 316.738 29.6297 317.41 30.7577V19.5257H320.578V42.2057C320.578 42.5897 320.65 42.8777 320.794 43.0697C320.962 43.2377 321.226 43.3337 321.586 43.3577V45.8057C320.986 45.9017 320.518 45.9497 320.182 45.9497C319.558 45.9497 319.006 45.7337 318.526 45.3017C318.07 44.8697 317.842 44.3897 317.842 43.8617V42.2777C317.098 43.4777 316.102 44.4257 314.854 45.1217C313.606 45.8177 312.31 46.1657 310.966 46.1657C309.67 46.1657 308.47 45.9137 307.366 45.4097C306.286 44.8817 305.338 44.1617 304.522 43.2497C303.73 42.3377 303.106 41.3057 302.65 40.1537C302.218 38.9777 302.002 37.7417 302.002 36.4457ZM317.41 39.2177V33.8177C317.122 33.0017 316.654 32.2697 316.006 31.6217C315.358 30.9497 314.626 30.4217 313.81 30.0377C313.018 29.6297 312.226 29.4257 311.434 29.4257C310.498 29.4257 309.646 29.6297 308.878 30.0377C308.134 30.4217 307.486 30.9497 306.934 31.6217C306.406 32.2697 305.998 33.0137 305.71 33.8537C305.422 34.6937 305.278 35.5697 305.278 36.4817C305.278 37.4177 305.434 38.3057 305.746 39.1457C306.082 39.9857 306.538 40.7297 307.114 41.3777C307.714 42.0257 308.398 42.5297 309.166 42.8897C309.958 43.2497 310.81 43.4297 311.722 43.4297C312.298 43.4297 312.886 43.3217 313.486 43.1057C314.11 42.8897 314.698 42.5897 315.25 42.2057C315.802 41.8217 316.27 41.3777 316.654 40.8737C317.038 40.3457 317.29 39.7937 317.41 39.2177Z" fill="#F59124"/>
<defs>
<linearGradient id="paint0_linear_50_109" x1="25.375" y1="65.5454" x2="45.6035" y2="40.5895" gradientUnits="userSpaceOnUse">
<stop stop-color="#F37421"/>
<stop offset="0.43" stop-color="#F47D22"/>
<stop offset="1" stop-color="#F59124"/>
</linearGradient>
<linearGradient id="paint1_linear_50_109" x1="22.7278" y1="61.1024" x2="23.4978" y2="23.407" gradientUnits="userSpaceOnUse">
<stop stop-color="#DC5626"/>
<stop offset="0.47" stop-color="#E25F26"/>
<stop offset="1" stop-color="#EC7026"/>
</linearGradient>
</defs>
</svg>
