<svg width="128" height="128" fill="none" xmlns="http://www.w3.org/2000/svg"><circle cx="64" cy="64" r="64" fill="url(#a)"/><g filter="url(#b)"><path d="M40.322 99.834c-3.017 0-5.456-.785-7.316-2.356-1.819-1.53-2.728-3.555-2.728-6.076 0-1.57.372-3.017 1.116-4.34a8.109 8.109 0 0 1 3.038-3.1 7.915 7.915 0 0 1 4.216-1.178c1.57 0 2.831.393 3.782 1.178.992.785 1.488 1.819 1.488 3.1 0 .992-.227 1.777-.682 2.356-.372-.496-.889-.889-1.55-1.178a4.635 4.635 0 0 0-1.984-.434c-1.24 0-2.253.413-3.038 1.24-.785.827-1.178 1.901-1.178 3.224 0 1.323.372 2.397 1.116 3.224.785.827 1.757 1.24 2.914 1.24 1.447 0 2.687-.64 3.72-1.922 1.033-1.281 1.819-3.183 2.356-5.704l3.1-13.702h-.248c-1.116 1.57-2.48 2.77-4.092 3.596-1.57.827-3.307 1.24-5.208 1.24-2.397 0-4.505-.64-6.324-1.922-1.819-1.281-3.224-3.1-4.216-5.456-.95-2.397-1.426-5.167-1.426-8.308 0-4.547.992-8.68 2.976-12.4 1.984-3.761 4.712-6.717 8.184-8.866 3.472-2.15 7.295-3.224 11.47-3.224 3.513 0 6.283.765 8.308 2.294 2.067 1.53 3.1 3.617 3.1 6.262 0 1.777-.434 3.203-1.302 4.278-.868 1.075-2.005 1.612-3.41 1.612-.785 0-1.53-.165-2.232-.496a4.617 4.617 0 0 1-1.674-1.426c.744-.496 1.364-1.281 1.86-2.356.537-1.116.806-2.232.806-3.348 0-1.24-.372-2.19-1.116-2.852-.703-.703-1.715-1.054-3.038-1.054-2.397 0-4.712 1.075-6.944 3.224-2.232 2.108-4.03 4.877-5.394 8.308-1.364 3.43-2.046 7.027-2.046 10.788 0 3.1.496 5.477 1.488 7.13.992 1.612 2.418 2.418 4.278 2.418 2.232 0 4.195-1.178 5.89-3.534 1.736-2.356 3.12-5.787 4.154-10.292l7.316.062-4.526 20.832c-1.323 6.159-3.203 10.685-5.642 13.578-2.397 2.893-5.518 4.34-9.362 4.34Zm45.516-11.78c-1.654 0-3.1-.351-4.34-1.054-1.199-.661-1.798-1.84-1.798-3.534 0-1.075.268-2.273.806-3.596.744.827 1.426 1.405 2.046 1.736a4.65 4.65 0 0 0 2.108.496c2.066 0 3.596-1.157 4.588-3.472 1.033-2.315 1.55-4.877 1.55-7.688 0-5.25-1.964-7.874-5.89-7.874-1.116 0-2.067.062-2.852.186L76.972 87h-8.928l8.432-39.432 9.176-1.24-2.914 13.764h.372c1.57 0 3.038-.496 4.402-1.488a11.803 11.803 0 0 0 3.286-3.844c.826-1.57 1.24-3.141 1.24-4.712 0-1.901-.682-3.493-2.046-4.774-1.323-1.281-3.369-1.922-6.138-1.922-2.522 0-4.98.579-7.378 1.736-2.398 1.116-4.36 2.81-5.89 5.084-1.488 2.273-2.232 5.022-2.232 8.246 0 1.53.144 2.604.434 3.224.29.579.434.91.434.992-2.19 0-3.844-.434-4.96-1.302-1.116-.91-1.674-2.377-1.674-4.402 0-2.81 1.054-5.477 3.162-7.998 2.108-2.521 4.898-4.547 8.37-6.076A26.324 26.324 0 0 1 85.094 40.5c2.893 0 5.332.455 7.316 1.364 1.984.91 3.451 2.108 4.402 3.596a8.647 8.647 0 0 1 1.488 4.898c0 1.901-.538 3.74-1.612 5.518-1.075 1.777-2.604 3.224-4.588 4.34 2.48.455 4.32 1.612 5.518 3.472 1.198 1.819 1.798 3.989 1.798 6.51 0 2.356-.455 4.919-1.364 7.688a17.065 17.065 0 0 1-4.402 7.192c-2.026 1.984-4.63 2.976-7.812 2.976Z" fill="#fff"/></g><defs><linearGradient id="a" x1="0" y1="0" x2="128" y2="128" gradientUnits="userSpaceOnUse"><stop stop-color="#FF0844"/><stop offset="1" stop-color="#FFB199"/></linearGradient><filter id="b" x="27.178" y="40.066" width="72.238" height="63.768" filterUnits="userSpaceOnUse" color-interpolation-filters="sRGB"><feFlood flood-opacity="0" result="BackgroundImageFix"/><feBlend in="SourceGraphic" in2="BackgroundImageFix" result="shape"/><feColorMatrix in="SourceAlpha" values="0 0 0 0 0 0 0 0 0 0 0 0 0 0 0 0 0 0 127 0" result="hardAlpha"/><feOffset dy="4"/><feGaussianBlur stdDeviation="2"/><feComposite in2="hardAlpha" operator="arithmetic" k2="-1" k3="1"/><feColorMatrix values="0 0 0 0 0 0 0 0 0 0 0 0 0 0 0 0 0 0 0.125 0"/><feBlend in2="shape" result="effect1_innerShadow_37_2"/></filter></defs></svg>
